<svg width="40" height="40" viewBox="0 0 40 40" fill="none" xmlns="http://www.w3.org/2000/svg">
<rect x="0.3" y="0.3" width="39.4" height="39.4" stroke="white" stroke-opacity="0.6" stroke-width="0.6"/>
<path fill-rule="evenodd" clip-rule="evenodd" d="M20 9.00004C22.0487 9.02342 23.8996 9.52696 25.5526 10.5107C27.1858 11.4747 28.5444 12.8416 29.4985 14.4807C30.4762 16.1436 30.9767 18.0057 31 20.0669C30.9419 22.8872 30.0524 25.296 28.3314 27.2933C26.6103 29.2907 24.4061 30.5263 22.1244 31V23.0928H24.2816L24.7695 19.9855H21.5029V17.9503C21.4848 17.5283 21.6182 17.1139 21.8791 16.7818C22.1403 16.4487 22.6003 16.2737 23.2592 16.2567H25.2317V13.5347C25.2034 13.5256 24.9348 13.4896 24.426 13.4267C23.849 13.3592 23.2687 13.3231 22.6877 13.3186C21.3727 13.3247 20.3328 13.6956 19.5679 14.4314C18.8029 15.167 18.4121 16.2312 18.3955 17.624V19.9855H15.9097V23.0928H18.3955V31C15.5938 30.5264 13.3896 29.2907 11.6686 27.2934C9.94756 25.2961 9.05806 22.8872 9 20.0669C9.02323 18.0056 9.52372 16.1435 10.5015 14.4807C11.4555 12.8416 12.8142 11.4747 14.4474 10.5106C16.1003 9.52712 17.9512 9.02363 20 9.00004Z" fill="white" fill-opacity="0.8"/>
</svg>
