<svg width="40" height="40" viewBox="0 0 40 40" fill="none" xmlns="http://www.w3.org/2000/svg">
<rect x="0.3" y="0.3" width="39.4" height="39.4" stroke="white" stroke-opacity="0.6" stroke-width="0.6"/>
<path d="M25 10H15C12.24 10 10 12.24 10 15V25C10 27.76 12.24 30 15 30H25C27.76 30 30 27.76 30 25V15C30 12.24 27.76 10 25 10ZM20 25C17.24 25 15 22.76 15 20C15 17.24 17.24 15 20 15C22.76 15 25 17.24 25 20C25 22.76 22.76 25 20 25ZM25.35 15.62C24.8 15.62 24.35 15.17 24.35 14.62C24.35 14.07 24.8 13.62 25.35 13.62C25.9 13.62 26.35 14.07 26.35 14.62C26.35 15.17 25.9 15.62 25.35 15.62Z" fill="white" fill-opacity="0.8"/>
<path d="M20 23C21.6569 23 23 21.6569 23 20C23 18.3431 21.6569 17 20 17C18.3431 17 17 18.3431 17 20C17 21.6569 18.3431 23 20 23Z" fill="white" fill-opacity="0.8"/>
</svg>
