<svg width="50" height="50" viewBox="0 0 50 50" fill="none" xmlns="http://www.w3.org/2000/svg">
<circle cx="25" cy="25" r="25" fill="#141414" fill-opacity="1"/>
<g clip-path="url(#clip0_67_13114)">
<path d="M29.873 12.8147C29.3341 12.8147 29.3295 13.6086 29.8776 13.627C31.4062 13.6268 32.8858 14.1655 34.0563 15.1484C35.2269 16.1314 36.0134 17.4956 36.2775 19.0011C36.544 20.5061 36.2713 22.057 35.5075 23.3808C34.7436 24.7047 33.5374 25.7169 32.101 26.2393C30.6922 26.7511 29.1499 26.7608 27.7348 26.2668C26.3197 25.7727 25.1187 24.8051 24.3346 23.5277L25.0486 23.7196C25.5783 23.8701 25.7918 23.0686 25.259 22.9334L23.593 22.4882C23.4889 22.4605 23.3782 22.4751 23.2849 22.529C23.1917 22.5828 23.1236 22.6713 23.0955 22.7753L22.6502 24.4382C22.4997 24.9679 23.3013 25.1829 23.4348 24.6486L23.6283 23.9269C24.5143 25.3824 25.8808 26.4827 27.4917 27.0379C29.1027 27.593 30.8569 27.5681 32.4515 26.9675C34.0461 26.3669 35.3808 25.2282 36.2251 23.7482C37.0694 22.2681 37.3704 20.5397 37.0759 18.8614C36.4494 15.2377 33.2434 12.784 29.873 12.8147ZM29.9575 15.9686C28.7724 15.9686 27.6359 16.4393 26.798 17.2773C25.96 18.1152 25.4893 19.2517 25.4893 20.4368C25.4893 21.6218 25.96 22.7583 26.798 23.5963C27.6359 24.4342 28.7724 24.905 29.9575 24.905C31.1425 24.905 32.279 24.4342 33.117 23.5963C33.9549 22.7583 34.4257 21.6218 34.4257 20.4368C34.4257 19.2517 33.9549 18.1152 33.117 17.2773C32.279 16.4393 31.1425 15.9686 29.9575 15.9686ZM30.3659 17.4073V17.7605C31.0507 17.9217 31.5022 18.4468 31.7018 19.081C31.8645 19.5984 31.0876 19.8426 30.9264 19.3236C30.7636 18.8107 30.4289 18.5436 29.9437 18.5251C29.8164 18.5223 29.6899 18.5447 29.5714 18.5912C29.4529 18.6376 29.3447 18.7071 29.2533 18.7957C29.1619 18.8843 29.089 18.9901 29.0388 19.1071C28.9886 19.2241 28.9622 19.3498 28.961 19.4771C28.961 19.6844 29.0116 19.7842 29.1729 19.8641C29.3356 19.9439 29.6489 19.9869 29.9989 20.0237C30.349 20.0606 30.739 20.0898 31.1045 20.2679C31.4668 20.4445 31.7647 20.8007 31.7647 21.3842C31.7647 22.2256 31.1598 22.9396 30.3659 23.1131V23.4555C30.3782 24.0083 29.5398 24.0083 29.5521 23.4555V23.1054C28.7598 22.9058 28.4082 22.3377 28.2178 21.7987C28.0228 21.2659 28.8443 21.0049 28.9917 21.5531C29.1498 22.0398 29.48 22.3162 29.9728 22.3361C30.5256 22.33 30.9555 21.9093 30.9555 21.3872C30.9555 21.1723 30.9018 21.0786 30.7406 20.9988C30.5778 20.9204 30.2646 20.8759 29.916 20.8375C29.5644 20.8022 29.179 20.7746 28.8166 20.598C28.4512 20.4199 28.1487 20.0683 28.1487 19.4771C28.1487 18.6357 28.7552 17.9278 29.5521 17.7497V17.4073C29.569 17.1371 29.7625 17.0019 29.9559 17.0019C30.1494 17.0019 30.346 17.1371 30.3659 17.4073ZM21.7213 27.44C21.0917 27.44 19.9693 27.8638 19.0787 28.2907C18.9037 28.3736 18.8023 28.4319 18.6503 28.5056C18.8085 28.7958 18.9068 29.1214 18.9068 29.473V34.9484C19.4436 34.8461 19.987 34.781 20.5328 34.7534C21.0349 34.7534 21.9731 35.4659 22.5842 35.8958C23.4533 36.51 24.3899 37.1887 25.4048 37.1887C25.7119 37.1887 26.019 37.0873 26.4228 36.9369C28.6447 36.1062 33.3324 33.4544 36.064 31.856C36.2269 31.7638 36.3698 31.6402 36.4846 31.4923C36.5993 31.3445 36.6836 31.1753 36.7326 30.9947C36.7816 30.8141 36.7942 30.6255 36.7699 30.44C36.7455 30.2544 36.6846 30.0755 36.5907 29.9137C36.216 29.2642 35.456 29.106 34.7174 29.3594L29.6166 31.0745C29.6519 31.4061 29.5936 31.7501 29.4139 32.0602C28.9686 32.8341 27.9691 33.1504 27.1952 32.7051L24.7308 31.2833C24.221 31.0223 24.6601 30.2668 25.1377 30.5816L27.6005 32.0019C27.6925 32.0568 27.7946 32.0927 27.9006 32.1075C28.0067 32.1224 28.1147 32.1157 28.2182 32.0881C28.3217 32.0605 28.4186 32.0124 28.5032 31.9467C28.5878 31.881 28.6583 31.799 28.7107 31.7055C28.7653 31.6135 28.8009 31.5115 28.8155 31.4056C28.8301 31.2996 28.8233 31.1917 28.7955 31.0884C28.7678 30.9851 28.7196 30.8884 28.6539 30.804C28.5881 30.7196 28.5062 30.6492 28.4128 30.5969C26.601 29.5498 23.3811 27.44 21.7213 27.44ZM14.0332 28.2523C13.8728 28.2521 13.714 28.2835 13.5658 28.3448C13.4176 28.4061 13.283 28.496 13.1696 28.6094C13.0562 28.7228 12.9663 28.8574 12.905 29.0056C12.8437 29.1538 12.8123 29.3126 12.8125 29.473V35.1588C12.8125 35.8237 13.3499 36.378 14.0255 36.378H16.8769C17.6185 36.378 18.0945 35.7484 18.0945 35.1573V29.4745C18.0949 29.3144 18.0637 29.1557 18.0027 29.0076C17.9417 28.8595 17.8521 28.7249 17.7389 28.6115C17.6258 28.4981 17.4915 28.4082 17.3435 28.3468C17.1956 28.2854 17.037 28.2538 16.8769 28.2538L14.0332 28.2523ZM14.8455 33.9396C14.8989 33.9396 14.9518 33.9502 15.0012 33.9706C15.0505 33.9911 15.0954 34.021 15.1332 34.0588C15.171 34.0966 15.2009 34.1415 15.2214 34.1908C15.2418 34.2402 15.2524 34.2931 15.2524 34.3465C15.2524 34.4 15.2418 34.4529 15.2214 34.5023C15.2009 34.5516 15.171 34.5965 15.1332 34.6343C15.0954 34.672 15.0505 34.702 15.0012 34.7225C14.9518 34.7429 14.8989 34.7534 14.8455 34.7534C14.7375 34.7534 14.634 34.7106 14.5577 34.6343C14.4814 34.558 14.4386 34.4545 14.4386 34.3465C14.4386 34.2386 14.4814 34.1351 14.5577 34.0588C14.634 33.9825 14.7375 33.9396 14.8455 33.9396Z" fill="white"/>
</g>
<defs>
<clipPath id="clip0_67_13114">
<rect width="26" height="26" fill="white" transform="translate(12 12)"/>
</clipPath>
</defs>
</svg>
