<svg width="50" height="50" viewBox="0 0 50 50" fill="none" xmlns="http://www.w3.org/2000/svg">
<circle cx="25" cy="25" r="25" fill="#141414" fill-opacity="1"/>
<g clip-path="url(#clip0_67_11840)">
<path d="M33.6543 17.6001C31.7788 15.66 29.3514 14.4264 26.7171 14.0511L27.468 13.3003C27.7654 13.0028 27.7654 12.5205 27.468 12.2231C27.1705 11.9256 26.6882 11.9256 26.3907 12.2231L24.4617 14.152C24.1642 14.4495 24.1642 14.9318 24.4617 15.2293L26.3907 17.1582C26.5394 17.307 26.7344 17.3814 26.9293 17.3814C27.1242 17.3814 27.3192 17.307 27.4679 17.1582C27.7653 16.8608 27.7653 16.3785 27.4679 16.081L27.0365 15.6496C29.1293 16.0592 31.0488 17.0969 32.5589 18.6589C34.4634 20.629 35.5123 23.2235 35.5123 25.9644C35.5124 31.7608 30.7967 36.4765 25.0004 36.4765C19.204 36.4765 14.4883 31.7608 14.4883 25.9645C14.4883 23.7527 15.1671 21.6369 16.4513 19.846C17.7089 18.0922 19.4426 16.7835 21.4651 16.0615C21.8613 15.92 22.0677 15.4842 21.9263 15.0879C21.7849 14.6917 21.349 14.4853 20.9528 14.6267C18.637 15.4535 16.6523 16.9513 15.2132 18.9582C13.7423 21.0096 12.9648 23.4323 12.9648 25.9645C12.9648 29.1793 14.2168 32.2017 16.49 34.4749C18.7632 36.748 21.7855 37.9999 25.0004 37.9999C28.2152 37.9999 31.2375 36.748 33.5107 34.4749C35.784 32.2016 37.0359 29.1793 37.0359 25.9645C37.0359 22.8263 35.8349 19.8557 33.6543 17.6001Z" fill="white"/>
<path d="M17.1758 25.9649C17.1758 30.2803 20.6866 33.7911 25.002 33.7911C29.3173 33.7911 32.8281 30.2803 32.8281 25.9649C32.8281 21.6496 29.3173 18.1387 25.002 18.1387C20.6865 18.1387 17.1758 21.6495 17.1758 25.9649ZM25.4696 26.6429C24.3731 26.2553 23.7378 25.9498 23.2769 25.5883C22.7097 25.1434 22.4501 24.375 22.5993 23.5831C22.7612 22.724 23.3603 22.04 24.1629 21.7983C24.174 21.7949 24.1849 21.7922 24.196 21.789V21.4823C24.196 21.0616 24.537 20.7205 24.9577 20.7205C25.3784 20.7205 25.7194 21.0616 25.7194 21.4823V21.7405C26.2513 21.8651 26.6225 22.1081 26.7725 22.2203C27.1095 22.4722 27.1784 22.9495 26.9265 23.2865C26.6746 23.6235 26.1974 23.6924 25.8603 23.4405C25.6991 23.32 25.2539 23.0606 24.6023 23.2569C24.2173 23.3729 24.1177 23.7518 24.0964 23.8652C24.0542 24.0891 24.1026 24.2999 24.2171 24.3896C24.6155 24.702 25.3304 24.9779 25.9772 25.2066C27.1604 25.6248 27.8184 26.7209 27.6144 27.934C27.5143 28.5296 27.2147 29.0823 26.7706 29.4903C26.4653 29.7708 26.1095 29.9702 25.7194 30.0828V30.4475C25.7194 30.8682 25.3784 31.2092 24.9577 31.2092C24.537 31.2092 24.196 30.8682 24.196 30.4475V30.1577C23.6892 30.0981 23.2664 29.9421 22.6977 29.57C22.3456 29.3397 22.2469 28.8676 22.4772 28.5156C22.7075 28.1634 23.1797 28.0648 23.5317 28.2951C24.059 28.6401 24.2583 28.6718 24.9526 28.6669C25.6362 28.6624 26.0328 28.1529 26.1121 27.6814C26.1509 27.4512 26.1657 26.889 25.4696 26.6429Z" fill="white"/>
</g>
<defs>
<clipPath id="clip0_67_11840">
<rect width="26" height="26" fill="white" transform="translate(12 12)"/>
</clipPath>
</defs>
</svg>
