<svg width="50" height="50" viewBox="0 0 50 50" fill="none" xmlns="http://www.w3.org/2000/svg">
<circle cx="25" cy="25" r="25" fill="#141414" fill-opacity="1"/>
<g clip-path="url(#clip0_67_13107)">
<path d="M31.5006 13.219V15.6573C31.5006 16.1993 32.3129 16.1993 32.3129 15.6573V13.219C32.3129 12.677 31.5006 12.677 31.5006 13.219ZM33.1251 14.8451V17.6872C33.1251 18.2246 33.9389 18.2323 33.9389 17.6872V14.8451C33.9389 14.3 33.1251 14.3 33.1251 14.8451ZM20.9366 16.875V19.3133C20.9366 19.843 21.7489 19.8645 21.7489 19.3133V16.875C21.7489 16.3345 20.9351 16.3345 20.9351 16.875H20.9366ZM27.8416 16.0627C26.3313 16.0672 24.8844 16.6706 23.8185 17.7406C22.7525 18.8105 22.1546 20.2597 22.1558 21.77C22.1558 24.9177 24.7047 27.4773 27.8416 27.4773C29.3526 27.4737 30.8004 26.8706 31.8673 25.8006C32.9341 24.7306 33.5329 23.281 33.532 21.77C33.5329 20.259 32.9341 18.8094 31.8673 17.7394C30.8004 16.6694 29.3526 16.0664 27.8416 16.0627ZM19.3121 18.9094V21.75C19.3121 22.2936 20.1259 22.2967 20.1259 21.75V18.9094C20.1259 18.369 19.3121 18.369 19.3121 18.9094ZM28.2516 18.7451V19.0983C28.9364 19.258 29.3878 19.7847 29.589 20.4188C29.7517 20.9363 28.9748 21.1789 28.812 20.6614C28.6508 20.1486 28.3145 19.8814 27.8293 19.863C27.7021 19.8601 27.5755 19.8826 27.457 19.929C27.3385 19.9755 27.2304 20.045 27.139 20.1335C27.0476 20.2221 26.9747 20.328 26.9245 20.4449C26.8743 20.5619 26.8478 20.6877 26.8466 20.815C26.8466 21.0222 26.8973 21.122 27.0601 21.2019C27.2213 21.2817 27.5361 21.3247 27.8861 21.3616C28.2362 21.3984 28.6262 21.4276 28.9901 21.6057C29.3525 21.7823 29.6519 22.1385 29.6519 22.722C29.6519 23.5634 29.0454 24.2774 28.2516 24.4509V24.7933C28.2639 25.3461 27.427 25.3461 27.4378 24.7933V24.4433C26.6455 24.2436 26.2954 23.6755 26.105 23.1366C25.9085 22.6038 26.7299 22.3427 26.8789 22.8909C27.0355 23.3776 27.3656 23.654 27.8585 23.674C28.4113 23.6678 28.8427 23.2471 28.8427 22.7251C28.8427 22.5101 28.7875 22.4164 28.6262 22.3366C28.4635 22.2583 28.1518 22.2138 27.8017 22.1754C27.4516 22.1385 27.0662 22.1124 26.7023 21.9358C26.3369 21.7577 26.0359 21.4061 26.0359 20.815C26.0359 19.972 26.6424 19.2657 27.4393 19.0876V18.7451C27.4457 18.6418 27.4912 18.5447 27.5667 18.4737C27.6422 18.4027 27.7419 18.3632 27.8455 18.3632C27.949 18.3632 28.0487 18.4027 28.1242 18.4737C28.1997 18.5447 28.2452 18.6418 28.2516 18.7451ZM35.1566 21.3462V26.3365L34.6314 25.8144C34.2583 25.4398 33.6794 25.9833 34.0556 26.3871L35.2763 27.6078C35.4345 27.766 35.6909 27.766 35.8491 27.6078L37.0697 26.3871C37.4244 25.9971 36.9085 25.4413 36.494 25.8144L35.9688 26.3395V21.3447C35.9688 20.8027 35.155 20.8027 35.155 21.3447L35.1566 21.3462ZM21.7228 27.4405C21.0933 27.4405 19.9678 27.8658 19.0772 28.2911C18.9021 28.3756 18.8008 28.4324 18.6488 28.5061C18.8069 28.7963 18.9052 29.1218 18.9052 29.4734V34.9489C19.4426 34.8465 19.9864 34.7814 20.5328 34.7539C21.0334 34.7539 21.9731 35.4663 22.5827 35.8963C23.4517 36.5105 24.3884 37.1891 25.4048 37.1891C25.7104 37.1891 26.0175 37.0893 26.4213 36.9373C28.6431 36.1082 33.3309 33.4549 36.064 31.858C36.2271 31.7658 36.3702 31.6421 36.4851 31.4941C36.6 31.3462 36.6844 31.1769 36.7333 30.996C36.7823 30.8152 36.7949 30.6265 36.7705 30.4408C36.746 30.2551 36.6849 30.076 36.5907 29.9141C36.216 29.2661 35.4544 29.108 34.7174 29.3598L29.6151 31.1256C29.6519 31.4572 29.592 31.8012 29.4139 32.1114C28.9671 32.8852 27.9675 33.1524 27.1937 32.7056L24.7292 31.2837C24.2195 31.0227 24.6586 30.2688 25.1361 30.582L27.599 32.0039C27.6911 32.0587 27.7932 32.0946 27.8993 32.1093C28.0055 32.124 28.1135 32.1172 28.217 32.0895C28.3205 32.0617 28.4174 32.0134 28.5019 31.9476C28.5865 31.8817 28.6569 31.7996 28.7092 31.706C28.7638 31.614 28.7994 31.512 28.814 31.406C28.8285 31.3 28.8217 31.1922 28.794 31.0889C28.7662 30.9856 28.7181 30.8888 28.6523 30.8044C28.5866 30.72 28.5046 30.6496 28.4113 30.5974C26.5994 29.5502 23.3826 27.4405 21.7228 27.4405ZM14.0332 28.2527C13.8728 28.2525 13.714 28.284 13.5658 28.3452C13.4176 28.4065 13.283 28.4964 13.1696 28.6098C13.0562 28.7232 12.9663 28.8579 12.905 29.0061C12.8437 29.1542 12.8123 29.3131 12.8125 29.4734V35.1593C12.8125 35.8241 13.3499 36.3799 14.0255 36.3799H16.8753C17.617 36.3799 18.093 35.7504 18.093 35.1577V29.4734C18.0934 29.3133 18.0622 29.1546 18.0012 29.0065C17.9401 28.8584 17.8505 28.7238 17.7374 28.6105C17.6243 28.4971 17.4899 28.4071 17.342 28.3457C17.1941 28.2843 17.0355 28.2527 16.8753 28.2527H14.0332ZM14.847 33.9416C14.9024 33.9382 14.958 33.9462 15.0102 33.9651C15.0624 33.9839 15.1103 34.0133 15.1507 34.0513C15.1912 34.0894 15.2234 34.1353 15.2455 34.1863C15.2675 34.2373 15.2789 34.2922 15.2789 34.3478C15.2789 34.4033 15.2675 34.4582 15.2455 34.5092C15.2234 34.5602 15.1912 34.6061 15.1507 34.6442C15.1103 34.6822 15.0624 34.7116 15.0102 34.7305C14.958 34.7493 14.9024 34.7573 14.847 34.7539C14.7391 34.7539 14.6356 34.711 14.5593 34.6347C14.483 34.5584 14.4401 34.4549 14.4401 34.347C14.4401 34.2391 14.483 34.1356 14.5593 34.0593C14.6356 33.983 14.7391 33.9401 14.847 33.9401V33.9416Z" fill="white"/>
</g>
<defs>
<clipPath id="clip0_67_13107">
<rect width="26" height="26" fill="white" transform="translate(12 12)"/>
</clipPath>
</defs>
</svg>
