<svg width="18" height="18" viewBox="0 0 18 18" fill="none" xmlns="http://www.w3.org/2000/svg">
<path d="M9.00014 12.0001C8.90143 12.0007 8.80359 11.9818 8.71221 11.9445C8.62083 11.9071 8.53772 11.8521 8.46764 11.7826L3.96764 7.28264C3.82641 7.14141 3.74707 6.94987 3.74707 6.75014C3.74707 6.55041 3.82641 6.35887 3.96764 6.21764C4.10887 6.07641 4.30041 5.99707 4.50014 5.99707C4.69987 5.99707 4.89141 6.07641 5.03264 6.21764L9.00014 10.1926L12.9676 6.22514C13.1111 6.10227 13.2957 6.03806 13.4844 6.04536C13.6732 6.05265 13.8522 6.1309 13.9858 6.26447C14.1194 6.39804 14.1976 6.57709 14.2049 6.76585C14.2122 6.95461 14.148 7.13916 14.0251 7.28264L9.52514 11.7826C9.38544 11.9212 9.19689 11.9993 9.00014 12.0001Z" fill="#141414" fill-opacity="0.6"/>
</svg>
