<svg width="18" height="18" viewBox="0 0 18 18" fill="none" xmlns="http://www.w3.org/2000/svg">
<path d="M9 3.64062C5.56091 3.64062 2.44216 5.52218 0.140841 8.57834C-0.0469469 8.82872 -0.0469469 9.17852 0.140841 9.4289C2.44216 12.4887 5.56091 14.3703 9 14.3703C12.4391 14.3703 15.5578 12.4887 17.8592 9.43258C18.0469 9.1822 18.0469 8.8324 17.8592 8.58202C15.5578 5.52218 12.4391 3.64062 9 3.64062ZM9.2467 12.7833C6.96379 12.9269 5.07855 11.0453 5.22215 8.75876C5.33998 6.87352 6.86806 5.34544 8.7533 5.22761C11.0362 5.08401 12.9214 6.96557 12.7778 9.25216C12.6563 11.1337 11.1283 12.6618 9.2467 12.7833ZM9.13256 11.038C7.90273 11.1153 6.88647 10.1027 6.96747 8.8729C7.03007 7.85664 7.85486 7.03553 8.87113 6.96925C10.101 6.89193 11.1172 7.90451 11.0362 9.13434C10.9699 10.1543 10.1451 10.9754 9.13256 11.038Z" fill="#1E2131"/>
</svg>
