<svg width="18" height="18" viewBox="0 0 18 18" fill="none" xmlns="http://www.w3.org/2000/svg">
<path fill-rule="evenodd" clip-rule="evenodd" d="M9.00113 1.5C9.20004 1.5 9.3908 1.57902 9.53146 1.71967C9.67211 1.86032 9.75113 2.05109 9.75113 2.25V9.75C9.75113 9.94891 9.67211 10.1397 9.53146 10.2803C9.3908 10.421 9.20004 10.5 9.00113 10.5C8.80222 10.5 8.61145 10.421 8.4708 10.2803C8.33014 10.1397 8.25113 9.94891 8.25113 9.75V2.25C8.25113 2.05109 8.33014 1.86032 8.4708 1.71967C8.61145 1.57902 8.80222 1.5 9.00113 1.5ZM6.65063 4.1775C6.75008 4.34976 6.77703 4.55447 6.72555 4.7466C6.67407 4.93873 6.54838 5.10254 6.37613 5.202C5.37518 5.77979 4.59286 6.67172 4.15051 7.73946C3.70816 8.8072 3.6305 9.99107 3.92959 11.1074C4.22867 12.2238 4.88777 13.2103 5.80467 13.9139C6.72157 14.6175 7.84501 14.9988 9.00075 14.9988C10.1565 14.9988 11.2799 14.6175 12.1968 13.9139C13.1137 13.2103 13.7728 12.2238 14.0719 11.1074C14.371 9.99107 14.2933 8.8072 13.851 7.73946C13.4086 6.67172 12.6263 5.77979 11.6254 5.202C11.4596 5.09941 11.3402 4.93627 11.2926 4.74717C11.2451 4.55806 11.273 4.35787 11.3705 4.18902C11.4681 4.02018 11.6276 3.89596 11.8151 3.8427C12.0027 3.78945 12.2037 3.81135 12.3754 3.90375C13.6621 4.64677 14.6678 5.7936 15.2363 7.16639C15.8049 8.53918 15.9046 10.0612 15.5199 11.4964C15.1353 12.9317 14.2879 14.1999 13.1091 15.1044C11.9302 16.0089 10.4859 16.4992 9 16.4992C7.51413 16.4992 6.06978 16.0089 4.89095 15.1044C3.71211 14.1999 2.86468 12.9317 2.48006 11.4964C2.09544 10.0612 2.19514 8.53918 2.76369 7.16639C3.33224 5.7936 4.33787 4.64677 5.62463 3.90375C5.70991 3.85436 5.80409 3.82226 5.90178 3.80929C5.99948 3.79631 6.09877 3.80272 6.19399 3.82815C6.2892 3.85357 6.37847 3.89751 6.4567 3.95745C6.53492 4.0174 6.60057 4.09217 6.64988 4.1775H6.65063Z" fill="#141414"/>
</svg>
