<svg width="18" height="18" viewBox="0 0 18 18" fill="none" xmlns="http://www.w3.org/2000/svg">
<path d="M13.5391 4.70703V4.05078C13.5391 2.91998 12.6191 2 11.4883 2H6.45703C5.32623 2 4.40625 2.91998 4.40625 4.05078V4.70703H13.5391ZM5.22656 10.7227V15.1797C5.22656 15.6327 5.59382 16 6.04688 16H11.8984C12.3515 16 12.7188 15.6327 12.7188 15.1797V10.7227H5.22656ZM10.0664 14.2227H7.87891C7.65239 14.2227 7.46875 14.039 7.46875 13.8125C7.46875 13.586 7.65239 13.4023 7.87891 13.4023H10.0664C10.2929 13.4023 10.4766 13.586 10.4766 13.8125C10.4766 14.039 10.2929 14.2227 10.0664 14.2227ZM10.0664 12.4727H7.87891C7.65239 12.4727 7.46875 12.289 7.46875 12.0625C7.46875 11.836 7.65239 11.6523 7.87891 11.6523H10.0664C10.2929 11.6523 10.4766 11.836 10.4766 12.0625C10.4766 12.289 10.2929 12.4727 10.0664 12.4727Z" fill="#1E2131"/>
<path d="M13.9219 5.5293H4.05078C2.91998 5.5293 2 6.44928 2 7.58008V10.8613C2 11.9921 2.91998 12.9121 4.05078 12.9121H4.40625V10.7246H4.16016C3.93364 10.7246 3.75 10.541 3.75 10.3145C3.75 10.0879 3.93364 9.9043 4.16016 9.9043H13.7852C14.0117 9.9043 14.1953 10.0879 14.1953 10.3145C14.1953 10.541 14.0117 10.7246 13.7852 10.7246H13.5391V12.9121H13.9219C15.0527 12.9121 15.9727 11.9921 15.9727 10.8613V7.58008C15.9727 6.44928 15.0527 5.5293 13.9219 5.5293ZM5.47266 8.09961H4.16016C3.93364 8.09961 3.75 7.91597 3.75 7.68945C3.75 7.46294 3.93364 7.2793 4.16016 7.2793H5.47266C5.69917 7.2793 5.88281 7.46294 5.88281 7.68945C5.88281 7.91597 5.69917 8.09961 5.47266 8.09961Z" fill="#1E2131"/>
</svg>
