<svg width="19" height="19" viewBox="0 0 19 19" fill="none" xmlns="http://www.w3.org/2000/svg">
<path d="M5.73991 5.54167C5.73991 3.46829 7.42695 1.78125 9.50033 1.78125C11.5737 1.78125 13.2607 3.46829 13.2607 5.54167C13.2607 7.61504 11.5737 9.30208 9.50033 9.30208C7.42695 9.30208 5.73991 7.61504 5.73991 5.54167ZM11.8753 10.4896H7.12533C4.61574 10.4896 2.57324 12.5321 2.57324 15.0417C2.57366 15.6189 2.80317 16.1724 3.21136 16.5806C3.61955 16.9888 4.17306 17.2183 4.75033 17.2188H14.2503C14.8276 17.2183 15.3811 16.9888 15.7893 16.5806C16.1975 16.1724 16.427 15.6189 16.4274 15.0417C16.4274 12.5321 14.3849 10.4896 11.8753 10.4896Z" fill="#141414"/>
</svg>
