<svg width="18" height="18" viewBox="0 0 18 18" fill="none" xmlns="http://www.w3.org/2000/svg">
<path d="M15.3496 15.3563C15.2563 15.4483 15.1306 15.4999 14.9996 15.5001C14.8668 15.4995 14.7393 15.4481 14.6434 15.3563L11.9434 12.6501C10.8062 13.6052 9.34425 14.0845 7.86236 13.9879C6.38046 13.8913 4.99306 13.2264 3.98951 12.1317C2.98596 11.0371 2.44375 9.59729 2.47597 8.1126C2.50818 6.62791 3.11233 5.21298 4.16241 4.1629C5.21249 3.11282 6.62743 2.50867 8.11212 2.47645C9.59681 2.44424 11.0366 2.98645 12.1313 3.99C13.2259 4.99355 13.8908 6.38095 13.9874 7.86285C14.084 9.34474 13.6047 10.8067 12.6496 11.9438L15.3496 14.6438C15.3969 14.6904 15.4344 14.7458 15.46 14.807C15.4856 14.8681 15.4988 14.9338 15.4988 15.0001C15.4988 15.0664 15.4856 15.132 15.46 15.1932C15.4344 15.2544 15.3969 15.3098 15.3496 15.3563ZM8.24961 13.0001C9.18907 13.0001 10.1074 12.7215 10.8886 12.1996C11.6697 11.6776 12.2785 10.9358 12.638 10.0678C12.9976 9.19989 13.0916 8.24483 12.9083 7.32342C12.7251 6.40201 12.2727 5.55564 11.6084 4.89134C10.9441 4.22704 10.0977 3.77465 9.17629 3.59137C8.25488 3.40809 7.29981 3.50215 6.43186 3.86167C5.56391 4.22119 4.82206 4.83001 4.30013 5.61114C3.77819 6.39227 3.49961 7.31064 3.49961 8.2501C3.50126 9.50937 4.00224 10.7166 4.89268 11.607C5.78312 12.4975 6.99034 12.9984 8.24961 13.0001Z" fill="#141414" fill-opacity="0.3"/>
</svg>
