<svg width="24" height="24" viewBox="0 0 24 24" fill="none" xmlns="http://www.w3.org/2000/svg">
<path d="M12 2C6.4934 2 2 6.4941 2 12C2 17.5066 6.4941 22 12 22C17.5066 22 22 17.5059 22 12C22 6.49336 17.5059 2 12 2ZM12 20.8281C7.13215 20.8281 3.17188 16.8679 3.17188 12C3.17188 7.13215 7.13215 3.17188 12 3.17188C16.8679 3.17188 20.8281 7.13215 20.8281 12C20.8281 16.8679 16.8679 20.8281 12 20.8281Z" fill="#141414"/>
<path d="M12 5.55469C11.0307 5.55469 10.2422 6.34324 10.2422 7.3125C10.2422 8.28176 11.0307 9.07031 12 9.07031C12.9693 9.07031 13.7578 8.28176 13.7578 7.3125C13.7578 6.34324 12.9693 5.55469 12 5.55469ZM12 7.89844C11.6769 7.89844 11.4141 7.63559 11.4141 7.3125C11.4141 6.98941 11.6769 6.72656 12 6.72656C12.3231 6.72656 12.5859 6.98941 12.5859 7.3125C12.5859 7.63559 12.3231 7.89844 12 7.89844ZM12 10.2422C11.0307 10.2422 10.2422 11.0307 10.2422 12V16.6875C10.2422 17.6568 11.0307 18.4453 12 18.4453C12.9693 18.4453 13.7578 17.6568 13.7578 16.6875V12C13.7578 11.0307 12.9693 10.2422 12 10.2422ZM12.5859 16.6875C12.5859 17.0106 12.3231 17.2734 12 17.2734C11.6769 17.2734 11.4141 17.0106 11.4141 16.6875V12C11.4141 11.6769 11.6769 11.4141 12 11.4141C12.3231 11.4141 12.5859 11.6769 12.5859 12V16.6875Z" fill="#141414"/>
</svg>
