<svg width="24" height="24" viewBox="0 0 24 24" fill="none" xmlns="http://www.w3.org/2000/svg">
<path d="M21.9962 6.93256C21.9846 6.82573 21.9457 6.7237 21.8832 6.6363C21.8207 6.5489 21.7367 6.47909 21.6394 6.43361L12.2643 2.05861C12.0968 1.98044 11.9033 1.98048 11.7357 2.05861L2.3607 6.43361C2.26338 6.47907 2.17941 6.54885 2.1169 6.63621C2.0544 6.72357 2.01547 6.82557 2.00387 6.93236C2.00236 6.95489 2.00107 6.97743 2 6.99998V17.625C2 17.7499 2.03742 17.872 2.10746 17.9754C2.17749 18.0788 2.27691 18.1589 2.39289 18.2053L11.7679 21.9553C11.9169 22.0149 12.0831 22.0149 12.2321 21.9553L14.7724 20.9394C15.5389 21.6 16.5361 22 17.625 22C20.0374 22 22 20.0374 22 17.625V6.99998C22 6.99686 21.9966 6.93686 21.9962 6.93256ZM12 3.31466L19.8025 6.95584L16.7981 8.1576L8.84872 4.78525L12 3.31466ZM11.375 20.4518L3.25 17.2018V7.92311L11.375 11.1731V20.4518ZM12 10.0768L4.1975 6.95584L7.32458 5.49654L15.1506 8.81659L12 10.0768ZM17.625 20.75C15.9019 20.75 14.5 19.3481 14.5 17.625C14.5 15.9019 15.9019 14.5 17.625 14.5C19.3481 14.5 20.75 15.9019 20.75 17.625C20.75 19.3481 19.3481 20.75 17.625 20.75ZM17.625 13.25C15.2126 13.25 13.25 15.2126 13.25 17.625C13.25 18.4733 13.4929 19.2657 13.9125 19.937L12.625 20.4519V11.1731L20.75 7.92311V14.5665C19.9553 13.7547 18.8481 13.25 17.625 13.25Z" fill="#141414"/>
<path d="M18.5089 17.625L19.0045 17.1295C19.2486 16.8854 19.2486 16.4897 19.0045 16.2456C18.7604 16.0015 18.3647 16.0015 18.1206 16.2456L17.625 16.7411L17.1295 16.2455C16.8854 16.0015 16.4897 16.0015 16.2456 16.2455C16.0015 16.4896 16.0015 16.8854 16.2456 17.1295L16.7412 17.625L16.2456 18.1206C16.0015 18.3647 16.0015 18.7604 16.2456 19.0045C16.3677 19.1265 16.5276 19.1875 16.6875 19.1875C16.8475 19.1875 17.0074 19.1265 17.1295 19.0045L17.625 18.5089L18.1206 19.0045C18.2427 19.1265 18.4026 19.1875 18.5625 19.1875C18.7225 19.1875 18.8824 19.1265 19.0045 19.0045C19.2486 18.7604 19.2486 18.3647 19.0045 18.1206L18.5089 17.625Z" fill="#141414"/>
</svg>
