<svg width="24" height="24" viewBox="0 0 24 24" fill="none" xmlns="http://www.w3.org/2000/svg">
<path d="M12.5 2H9.5C8.94772 2 8.5 2.44772 8.5 3V4C8.5 4.55228 8.94772 5 9.5 5H12.5C13.0523 5 13.5 4.55228 13.5 4V3C13.5 2.44772 13.0523 2 12.5 2Z" fill="#141414"/>
<path d="M17 3H14.5V4C14.5 4.53043 14.2893 5.03914 13.9142 5.41421C13.5391 5.78929 13.0304 6 12.5 6H9.5C8.96957 6 8.46086 5.78929 8.08579 5.41421C7.71071 5.03914 7.5 4.53043 7.5 4V3H5C4.60218 3 4.22064 3.15804 3.93934 3.43934C3.65804 3.72064 3.5 4.10218 3.5 4.5V19.5C3.5 19.8978 3.65804 20.2794 3.93934 20.5607C4.22064 20.842 4.60218 21 5 21H12.5C11.8388 20.1167 11.4884 19.0395 11.5033 17.9363C11.5182 16.833 11.8976 15.7657 12.5824 14.9006C13.2672 14.0355 14.2189 13.4211 15.2893 13.1533C16.3596 12.8855 17.4885 12.9793 18.5 13.42V4.5C18.5 4.10218 18.342 3.72064 18.0607 3.43934C17.7794 3.15804 17.3978 3 17 3ZM10.5 17H6.5C6.36739 17 6.24021 16.9473 6.14645 16.8536C6.05268 16.7598 6 16.6326 6 16.5C6 16.3674 6.05268 16.2402 6.14645 16.1464C6.24021 16.0527 6.36739 16 6.5 16H10.5C10.6326 16 10.7598 16.0527 10.8536 16.1464C10.9473 16.2402 11 16.3674 11 16.5C11 16.6326 10.9473 16.7598 10.8536 16.8536C10.7598 16.9473 10.6326 17 10.5 17ZM15.5 13H6.5C6.36739 13 6.24021 12.9473 6.14645 12.8536C6.05268 12.7598 6 12.6326 6 12.5C6 12.3674 6.05268 12.2402 6.14645 12.1464C6.24021 12.0527 6.36739 12 6.5 12H15.5C15.6326 12 15.7598 12.0527 15.8536 12.1464C15.9473 12.2402 16 12.3674 16 12.5C16 12.6326 15.9473 12.7598 15.8536 12.8536C15.7598 12.9473 15.6326 13 15.5 13ZM15.5 9H6.5C6.36739 9 6.24021 8.94732 6.14645 8.85355C6.05268 8.75979 6 8.63261 6 8.5C6 8.36739 6.05268 8.24021 6.14645 8.14645C6.24021 8.05268 6.36739 8 6.5 8H15.5C15.6326 8 15.7598 8.05268 15.8536 8.14645C15.9473 8.24021 16 8.36739 16 8.5C16 8.63261 15.9473 8.75979 15.8536 8.85355C15.7598 8.94732 15.6326 9 15.5 9Z" fill="#141414"/>
<path d="M16.5 14C15.7089 14 14.9355 14.2346 14.2777 14.6741C13.6199 15.1136 13.1072 15.7384 12.8045 16.4693C12.5017 17.2002 12.4225 18.0044 12.5769 18.7804C12.7312 19.5563 13.1122 20.269 13.6716 20.8284C14.231 21.3878 14.9437 21.7688 15.7196 21.9231C16.4956 22.0775 17.2998 21.9983 18.0307 21.6955C18.7616 21.3928 19.3864 20.8801 19.8259 20.2223C20.2654 19.5645 20.5 18.7911 20.5 18C20.5 16.9391 20.0786 15.9217 19.3284 15.1716C18.5783 14.4214 17.5609 14 16.5 14ZM17.915 18.705C17.9619 18.7515 17.9991 18.8068 18.0244 18.8677C18.0498 18.9286 18.0629 18.994 18.0629 19.06C18.0629 19.126 18.0498 19.1914 18.0244 19.2523C17.9991 19.3132 17.9619 19.3685 17.915 19.415C17.8683 19.4613 17.8129 19.498 17.752 19.5229C17.691 19.5478 17.6258 19.5604 17.56 19.56C17.4942 19.5604 17.429 19.5478 17.368 19.5229C17.3071 19.498 17.2517 19.4613 17.205 19.415L16.5 18.705L15.795 19.415C15.7483 19.4613 15.6929 19.498 15.632 19.5229C15.571 19.5478 15.5058 19.5604 15.44 19.56C15.3742 19.5604 15.309 19.5478 15.248 19.5229C15.1871 19.498 15.1317 19.4613 15.085 19.415C15.0381 19.3685 15.0009 19.3132 14.9756 19.2523C14.9502 19.1914 14.9371 19.126 14.9371 19.06C14.9371 18.994 14.9502 18.9286 14.9756 18.8677C15.0009 18.8068 15.0381 18.7515 15.085 18.705L15.795 18L15.085 17.295C14.9909 17.2008 14.938 17.0732 14.938 16.94C14.938 16.8068 14.9909 16.6792 15.085 16.585C15.1792 16.4908 15.3069 16.438 15.44 16.438C15.5732 16.438 15.7009 16.4908 15.795 16.585L16.5 17.295L17.205 16.585C17.2992 16.4908 17.4269 16.438 17.56 16.438C17.6932 16.438 17.8209 16.4908 17.915 16.585C18.0092 16.6792 18.062 16.8068 18.062 16.94C18.062 17.0732 18.0092 17.2008 17.915 17.295L17.205 18L17.915 18.705Z" fill="#141414"/>
</svg>
