<svg width="24" height="24" viewBox="0 0 24 24" fill="none" xmlns="http://www.w3.org/2000/svg">
<path d="M11.2555 11.1146L2.27109 7.33175C2.14238 7.27753 2 7.37206 2 7.51175V17.625C2 17.7499 2.03742 17.8719 2.10746 17.9754C2.17749 18.0788 2.27691 18.1589 2.39289 18.2053L11.1071 21.691C11.2354 21.7423 11.375 21.6478 11.375 21.5096V11.2946C11.375 11.2562 11.3636 11.2186 11.3424 11.1866C11.3211 11.1546 11.2909 11.1296 11.2555 11.1146ZM12.0758 10.04L20.76 6.38347C20.9161 6.31777 20.9202 6.09808 20.7668 6.02648L12.2643 2.05862C12.1815 2.02001 12.0913 2 12 2C11.9087 2 11.8185 2.02001 11.7357 2.05862L3.23324 6.02644C3.07977 6.09804 3.08395 6.31773 3.24004 6.38343L11.9242 10.0399C11.9727 10.0603 12.0273 10.0603 12.0758 10.04ZM17.625 12C19.2777 12 20.7661 12.7167 21.7961 13.8554C21.868 13.935 22 13.8844 22 13.7771V7.51175C22 7.37206 21.8576 7.27753 21.7289 7.33175L12.7445 11.1146C12.7091 11.1296 12.6789 11.1546 12.6576 11.1866C12.6363 11.2186 12.625 11.2562 12.625 11.2946V14.6069C12.625 14.7248 12.7793 14.7687 12.8414 14.6686C13.8341 13.0681 15.6071 12 17.625 12Z" fill="#141414"/>
<path d="M17.625 13.25C15.2126 13.25 13.25 15.2126 13.25 17.625C13.25 20.0374 15.2126 22 17.625 22C20.0374 22 22 20.0374 22 17.625C22 15.2126 20.0374 13.25 17.625 13.25ZM19.0044 18.1205C19.2485 18.3646 19.2485 18.7604 19.0044 19.0045C18.8824 19.1265 18.7225 19.1875 18.5625 19.1875C18.4025 19.1875 18.2426 19.1265 18.1206 19.0045L17.625 18.5089L17.1294 19.0045C17.0074 19.1265 16.8475 19.1875 16.6875 19.1875C16.5275 19.1875 16.3676 19.1265 16.2456 19.0045C16.0015 18.7604 16.0015 18.3646 16.2456 18.1205L16.7411 17.625L16.2456 17.1295C16.0015 16.8854 16.0015 16.4896 16.2456 16.2455C16.4896 16.0015 16.8854 16.0015 17.1295 16.2455L17.625 16.7411L18.1206 16.2455C18.3646 16.0014 18.7604 16.0014 19.0045 16.2455C19.2486 16.4896 19.2486 16.8853 19.0045 17.1294L18.5089 17.625L19.0044 18.1205Z" fill="#141414"/>
</svg>
