<svg width="24" height="24" viewBox="0 0 24 24" fill="none" xmlns="http://www.w3.org/2000/svg">
<path d="M2.08687 3.63672C0.934534 3.63672 0 4.5712 0 5.72437C0 6.8767 0.934534 7.8104 2.08687 7.8104C3.2392 7.8104 4.17374 6.8767 4.17374 5.72437C4.17374 4.5712 3.2392 3.63672 2.08687 3.63672ZM2.08687 9.91527C0.934534 9.91527 0 10.849 0 12.0021C0 13.1545 0.934534 14.089 2.08687 14.089C3.2392 14.089 4.17374 13.1545 4.17374 12.0021C4.17374 10.849 3.2392 9.91527 2.08687 9.91527ZM2.08687 16.193C0.934534 16.193 0 17.1275 0 18.2799C0 19.4322 0.934534 20.3667 2.08687 20.3667C3.2392 20.3667 4.17374 19.4322 4.17374 18.2799C4.17374 17.1275 3.2392 16.193 2.08687 16.193ZM22.4307 4.15433H7.58619C6.71963 4.15433 6.01693 4.85703 6.01693 5.72437C6.01693 6.59098 6.71958 7.29363 7.58619 7.29363H22.4307C23.2972 7.29363 24 6.59098 24 5.72437C24 4.85703 23.2972 4.15433 22.4307 4.15433ZM22.4307 10.4321H7.58619C6.71963 10.4321 6.01693 11.1347 6.01693 12.0021C6.01693 12.8687 6.71958 13.5714 7.58619 13.5714H22.4307C23.2972 13.5714 24 12.8687 24 12.0021C24 11.1347 23.2972 10.4321 22.4307 10.4321ZM22.4307 16.7106H7.58619C6.71963 16.7106 6.01693 17.4132 6.01693 18.2799C6.01693 19.1464 6.71958 19.8491 7.58619 19.8491H22.4307C23.2972 19.8491 24 19.1464 24 18.2799C24 17.4132 23.2972 16.7106 22.4307 16.7106Z" fill="#141414"/>
</svg>
