<svg width="24" height="24" viewBox="0 0 24 24" fill="none" xmlns="http://www.w3.org/2000/svg">
<path d="M2.08691 16.793C2.90788 16.793 3.57422 17.4593 3.57422 18.2803C3.57399 19.101 2.90772 19.7666 2.08691 19.7666C1.26609 19.7666 0.599838 19.101 0.599609 18.2803C0.599609 17.4593 1.26593 16.793 2.08691 16.793ZM7.58594 17.3105H22.4307C22.9658 17.3105 23.4004 17.745 23.4004 18.2803C23.4002 18.8152 22.9657 19.249 22.4307 19.249H7.58594C7.05094 19.2489 6.61742 18.8152 6.61719 18.2803C6.61719 17.7451 7.05085 17.3107 7.58594 17.3105ZM2.08691 10.5156C2.90795 10.5156 3.57412 11.1804 3.57422 12.002C3.57422 12.8229 2.90788 13.4892 2.08691 13.4893C1.26593 13.4893 0.599609 12.8229 0.599609 12.002C0.599708 11.1804 1.26586 10.5156 2.08691 10.5156ZM7.58594 11.0322H22.4307C22.9656 11.0322 23.4003 11.4658 23.4004 12.002C23.4004 12.5372 22.9658 12.9717 22.4307 12.9717H7.58594C7.05081 12.9715 6.61719 12.5371 6.61719 12.002C6.61729 11.4659 7.05111 11.0324 7.58594 11.0322ZM2.08691 4.23633C2.90772 4.23635 3.57422 4.90269 3.57422 5.72461C3.57409 6.54513 2.90809 7.20994 2.08691 7.20996C1.26572 7.20996 0.599739 6.54515 0.599609 5.72461C0.599609 4.90267 1.26609 4.23633 2.08691 4.23633ZM7.58594 4.75391H22.4307C22.9656 4.75391 23.4004 5.18846 23.4004 5.72461C23.4003 6.25971 22.9657 6.69336 22.4307 6.69336H7.58594C7.05089 6.69322 6.61732 6.25966 6.61719 5.72461C6.61719 5.18853 7.05106 4.75404 7.58594 4.75391Z" stroke="#141414" stroke-width="1.2"/>
</svg>
