<svg width="24" height="24" viewBox="0 0 24 24" fill="none" xmlns="http://www.w3.org/2000/svg">
<path d="M14.8366 13.7322C13.8616 13.7322 12.8865 15.1476 12.4461 15.871C12.1316 16.0283 10.9678 15.7766 9.61527 14.4241C8.26275 13.0717 8.01112 11.8764 8.16839 11.5933C8.89183 11.153 10.3073 10.1465 10.3073 9.2029C10.2758 7.09553 6.75296 3.57275 4.64555 3.57275C2.72686 3.57275 -1.20489 8.88836 6.97314 17.0662C15.0883 25.1812 20.4669 21.281 20.4669 19.3623C20.4669 17.2549 16.944 13.7322 14.8366 13.7322ZM7.85385 16.1855C4.70846 13.0402 0.99689 7.18988 4.73991 4.83089C6.18679 4.92525 9.01765 7.7875 9.01765 9.17144C8.92329 9.61179 7.4764 10.5239 7.28768 10.6812C6.21825 11.7506 7.19332 13.8265 8.70311 15.3363C10.2129 16.8461 12.2889 17.8211 13.3583 16.7517L13.4212 16.6888L13.4527 16.6259C13.9245 15.8395 14.585 15.0847 14.8366 15.0218C16.2521 15.0532 19.0829 17.884 19.1773 19.3309C16.8497 23.0424 10.9992 19.2994 7.85385 16.1855Z" fill="#141414"/>
<path d="M20.0261 2H13.5152C12.4143 2 11.5021 2.91215 11.5021 4.01301V8.54229C11.5021 9.64315 12.3828 10.5238 13.4523 10.5553V12.2538C13.4523 12.757 14.0184 13.0401 14.4273 12.7885L17.8244 10.5868H20.0261C21.127 10.5868 22.0392 9.67461 22.0392 8.57374V4.01301C22.0077 2.91215 21.127 2 20.0261 2ZM20.7496 8.51084C20.7496 8.91973 20.4036 9.26571 19.9947 9.26571H17.6356C17.5098 9.26571 17.384 9.29717 17.2896 9.36007L14.7104 11.0271V9.86333C14.7104 9.51734 14.4273 9.23426 14.0813 9.23426H13.5152C13.1063 9.23426 12.7603 8.88827 12.7603 8.47938V4.01301C12.7603 3.60412 13.1063 3.25813 13.5152 3.25813H20.0261C20.435 3.25813 20.781 3.60412 20.781 4.01301V8.51084H20.7496Z" fill="#141414"/>
<path d="M14.6172 5.61719H14.3341C13.9881 5.61719 13.705 5.90027 13.705 6.24625C13.705 6.59224 13.9881 6.87532 14.3341 6.87532H14.6172C14.9632 6.87532 15.2462 6.59224 15.2462 6.24625C15.2462 5.90027 14.9632 5.61719 14.6172 5.61719ZM16.9133 5.61719H16.6302C16.2842 5.61719 16.0011 5.90027 16.0011 6.24625C16.0011 6.59224 16.2842 6.87532 16.6302 6.87532H16.9133C17.2593 6.87532 17.5424 6.59224 17.5424 6.24625C17.5424 5.90027 17.2593 5.61719 16.9133 5.61719ZM19.2409 5.61719H18.9578C18.6118 5.61719 18.3287 5.90027 18.3287 6.24625C18.3287 6.59224 18.6118 6.87532 18.9578 6.87532H19.2409C19.5869 6.87532 19.87 6.59224 19.87 6.24625C19.87 5.90027 19.5869 5.61719 19.2409 5.61719Z" fill="#141414"/>
</svg>
