<svg width="24" height="24" viewBox="0 0 24 24" fill="none" xmlns="http://www.w3.org/2000/svg">
<path d="M15.0311 14.4368C14.2186 14.4368 12.9999 16.4679 12.9999 16.4679C12.3125 17.1554 10.5313 16.4992 9.0314 14.968C7.53149 13.4681 6.84403 11.6557 7.53149 10.9682C7.53149 10.9682 9.56262 9.74956 9.56262 8.93711C9.56262 7.06221 6.15656 3.65616 4.28167 3.65616C3.75045 3.65616 2.78175 5.15607 2.78175 5.15607C0.781868 7.15596 2.75051 12.4057 7.18776 16.8429C11.625 21.2489 16.8435 23.2175 18.8746 21.2177C18.8746 21.2177 20.3433 20.2802 20.3433 19.749C20.3433 17.8741 16.906 14.4368 15.0311 14.4368ZM20.5308 2H13.6561C12.8437 2 12.1875 2.65621 12.1875 3.46867V8.24965C12.1875 9.0621 12.8437 9.71831 13.6561 9.71831H14.2811V11.3432C14.2811 11.687 14.6873 11.9057 14.9686 11.7182L18.0309 9.71831H20.5308C21.3432 9.71831 21.9994 9.0621 21.9994 8.24965V3.46867C21.9994 2.65621 21.3432 2 20.5308 2ZM14.8123 6.53099H14.4998C14.1249 6.53099 13.8436 6.21851 13.8436 5.87478C13.8436 5.53105 14.1561 5.21857 14.4998 5.21857H14.8123C15.1873 5.21857 15.4685 5.53105 15.4685 5.87478C15.4685 6.21851 15.1873 6.53099 14.8123 6.53099ZM17.2497 6.53099H16.9372C16.5622 6.53099 16.281 6.21851 16.281 5.87478C16.281 5.53105 16.5935 5.21857 16.9372 5.21857H17.2497C17.6247 5.21857 17.9059 5.53105 17.9059 5.87478C17.9059 6.21851 17.6247 6.53099 17.2497 6.53099ZM19.7183 6.53099H19.4058C19.0308 6.53099 18.7496 6.21851 18.7496 5.87478C18.7496 5.53105 19.0621 5.21857 19.4058 5.21857H19.7183C20.0933 5.21857 20.3745 5.53105 20.3745 5.87478C20.3745 6.21851 20.062 6.53099 19.7183 6.53099Z" fill="#141414"/>
</svg>
