<svg width="24" height="24" viewBox="0 0 24 24" fill="none" xmlns="http://www.w3.org/2000/svg">
<path d="M12 9.79686C13.8739 9.79686 15.3984 8.27233 15.3984 6.39843C15.3984 4.52453 13.8739 3 12 3C10.1261 3 8.60155 4.52453 8.60155 6.39843C8.60155 8.27233 10.1261 9.79686 12 9.79686ZM12 4.17187C13.2277 4.17187 14.2265 5.1707 14.2265 6.39843C14.2265 7.62616 13.2277 8.62499 12 8.62499C10.7722 8.62499 9.77342 7.62616 9.77342 6.39843C9.77342 5.1707 10.7722 4.17187 12 4.17187ZM18.875 9.79686C20.0596 9.79686 21.0234 8.83307 21.0234 7.64843C21.0234 6.46378 20.0596 5.5 18.875 5.5C17.6903 5.5 16.7265 6.46378 16.7265 7.64843C16.7265 8.83307 17.6903 9.79686 18.875 9.79686ZM18.875 6.67187C19.4134 6.67187 19.8515 7.10995 19.8515 7.64843C19.8515 8.1869 19.4134 8.62499 18.875 8.62499C18.3365 8.62499 17.8984 8.1869 17.8984 7.64843C17.8984 7.10995 18.3365 6.67187 18.875 6.67187ZM19.3476 11.125H18.4414C17.3734 11.125 16.4516 11.7559 16.0315 12.6622C15.1666 11.718 13.9243 11.125 12.546 11.125H11.454C10.0757 11.125 8.83339 11.718 7.9685 12.6622C7.54839 11.7559 6.62651 11.125 5.55859 11.125H4.65234C3.18984 11.125 2 12.3076 2 13.7613V18.0273C2 18.6584 2.51539 19.1718 3.1489 19.1718H6.73198C6.79206 19.8711 7.38003 20.4218 8.0946 20.4218H15.9054C16.6199 20.4218 17.2079 19.8711 17.268 19.1718H20.8102C21.4663 19.1718 22 18.6402 22 17.9867V13.7613C22 12.3076 20.8101 11.125 19.3476 11.125ZM3.17187 13.7613C3.17187 12.9538 3.83601 12.2969 4.65234 12.2969H5.55859C6.37491 12.2969 7.03905 12.9538 7.03905 13.7613V14.1625C6.64503 15.1885 6.72655 15.8033 6.72655 18H3.17187V13.7613ZM16.1015 19.0538C16.1015 19.1058 16.0808 19.1557 16.044 19.1925C16.0073 19.2292 15.9574 19.2499 15.9054 19.25H8.09456C8.04256 19.2499 7.99271 19.2292 7.95594 19.1925C7.91917 19.1557 7.89849 19.1058 7.89843 19.0538V15.8524C7.89843 13.8919 9.49342 12.2969 11.4539 12.2969H12.546C14.5065 12.2969 16.1015 13.8919 16.1015 15.8524V19.0538ZM20.8281 17.9867C20.8281 18.0069 21.0465 18 17.2734 18C17.2734 15.787 17.3543 15.1868 16.9609 14.1625V13.7613C16.9609 12.9538 17.625 12.2969 18.4414 12.2969H19.3476C20.1639 12.2969 20.8281 12.9538 20.8281 13.7613V17.9867ZM5.12499 9.79686C6.30964 9.79686 7.27343 8.83307 7.27343 7.64843C7.27343 6.46378 6.30964 5.5 5.12499 5.5C3.94035 5.5 2.97656 6.46378 2.97656 7.64843C2.97656 8.83307 3.94035 9.79686 5.12499 9.79686ZM5.12499 6.67187C5.66347 6.67187 6.10155 7.10995 6.10155 7.64843C6.10155 8.1869 5.66347 8.62499 5.12499 8.62499C4.58652 8.62499 4.14843 8.1869 4.14843 7.64843C4.14843 7.10995 4.58652 6.67187 5.12499 6.67187Z" fill="#141414"/>
</svg>
