<svg width="24" height="24" viewBox="0 0 24 24" fill="none" xmlns="http://www.w3.org/2000/svg">
<path d="M12.0004 9.79688C13.8773 9.79688 15.3989 8.27535 15.3989 6.39844C15.3989 4.52153 13.8773 3 12.0004 3C10.1234 3 8.60181 4.52153 8.60181 6.39844C8.60181 8.27535 10.1234 9.79688 12.0004 9.79688Z" fill="#141414"/>
<path d="M18.8756 9.79688C20.0622 9.79688 21.0241 8.83499 21.0241 7.64844C21.0241 6.46189 20.0622 5.5 18.8756 5.5C17.689 5.5 16.7271 6.46189 16.7271 7.64844C16.7271 8.83499 17.689 9.79688 18.8756 9.79688Z" fill="#141414"/>
<path d="M5.12514 9.79688C6.31173 9.79688 7.27365 8.83499 7.27365 7.64844C7.27365 6.46189 6.31173 5.5 5.12514 5.5C3.93855 5.5 2.97662 6.46189 2.97662 7.64844C2.97662 8.83499 3.93855 9.79688 5.12514 9.79688Z" fill="#141414"/>
<path d="M7.24198 11.7263C6.39625 11.0334 5.63032 11.1251 4.65244 11.1251C3.18989 11.1251 2 12.3079 2 13.7614V18.0275C2 18.6587 2.51525 19.172 3.14887 19.172C5.88435 19.172 5.55481 19.2215 5.55481 19.054C5.55481 16.0311 5.19675 13.8143 7.24198 11.7263Z" fill="#141414"/>
<path d="M12.9297 11.1408C11.2217 10.9984 9.73709 11.1425 8.45654 12.1994C6.31361 13.9158 6.72601 16.2269 6.72601 19.0541C6.72601 19.8021 7.33462 20.4221 8.09402 20.4221C16.3397 20.4221 16.6679 20.6881 17.1568 19.6053C17.3172 19.2391 17.2733 19.3555 17.2733 15.8525C17.2733 13.0703 14.8641 11.1408 12.9297 11.1408ZM19.3475 11.1252C18.3643 11.1252 17.6026 11.0344 16.758 11.7264C18.788 13.7989 18.4452 15.8645 18.4452 19.0541C18.4452 19.2226 18.1716 19.1721 20.8101 19.1721C21.4664 19.1721 22 18.6404 22 17.9869V13.7615C22 12.308 20.8101 11.1252 19.3475 11.1252Z" fill="#141414"/>
</svg>
