<svg width="24" height="24" viewBox="0 0 24 24" fill="none" xmlns="http://www.w3.org/2000/svg">
<path d="M23.4 10.4388C23.3992 10.4383 23.3986 10.4376 23.3981 10.437L13.608 0.647344C13.1907 0.229781 12.6359 0 12.0457 0C11.4556 0 10.9008 0.229781 10.4833 0.647297L0.698296 10.432C0.695015 10.4353 0.691546 10.4388 0.688452 10.4421C-0.168516 11.304 -0.167016 12.7023 0.692671 13.562C1.08539 13.955 1.60392 14.1824 2.15859 14.2064C2.18128 14.2086 2.20402 14.2096 2.22689 14.2096H2.61689V21.4141C2.61689 22.84 3.77705 24 5.20289 24H9.03309C9.42145 24 9.73622 23.685 9.73622 23.2968V17.6484C9.73622 16.9979 10.2656 16.4687 10.9162 16.4687H13.1753C13.8259 16.4687 14.355 16.9979 14.355 17.6484V23.2969C14.355 23.685 14.6698 24 15.0582 24H18.8884C20.3144 24 21.4744 22.84 21.4744 21.4142V14.2097H21.8362C22.4262 14.2097 22.981 13.9799 23.3986 13.5622C24.2593 12.7013 24.2596 11.3003 23.3999 10.4388L23.4 10.4388ZM22.4042 12.568C22.3298 12.6428 22.2413 12.7022 22.1438 12.7426C22.0463 12.783 21.9417 12.8037 21.8362 12.8035H20.7712C20.3828 12.8035 20.0681 13.1182 20.0681 13.5066V21.4142C20.0681 22.0646 19.5389 22.5938 18.8883 22.5938H15.7613V17.6484C15.7613 16.2226 14.6013 15.0624 13.1753 15.0624H10.9162C9.49017 15.0624 8.33002 16.2226 8.33002 17.6484V22.5938H5.20298C4.55255 22.5938 4.02319 22.0645 4.02319 21.4142V13.5066C4.02319 13.1182 3.70842 12.8034 3.32006 12.8034H2.27339C2.26242 12.8027 2.25143 12.8022 2.24044 12.8019C2.03095 12.7983 1.8345 12.7152 1.68731 12.5677C1.37419 12.2546 1.37419 11.7451 1.68731 11.4318C1.68745 11.4318 1.68745 11.4316 1.68764 11.4314L1.6882 11.4308L11.4779 1.64156C11.5523 1.5667 11.6408 1.50736 11.7382 1.46696C11.8357 1.42657 11.9402 1.40593 12.0457 1.40625C12.2602 1.40625 12.4618 1.48973 12.6135 1.64156L22.401 11.4289L22.4056 11.4333C22.7171 11.747 22.7166 12.2555 22.4042 12.568Z" fill="#141414"/>
</svg>
