<svg width="24" height="24" viewBox="0 0 24 24" fill="none" xmlns="http://www.w3.org/2000/svg">
<path d="M23.3529 10.4388L23.3512 10.4372L13.5612 0.647484C13.1438 0.229922 12.589 0 11.9989 0C11.4088 0 10.854 0.229781 10.4365 0.647297L0.651467 10.432C0.648186 10.4353 0.644904 10.4388 0.641623 10.4421C-0.215346 11.304 -0.213846 12.7023 0.645842 13.562C1.03856 13.955 1.55733 14.1825 2.11195 14.2064C2.13445 14.2086 2.15719 14.2096 2.18006 14.2096H2.57025V21.4143C2.57025 22.84 3.73022 24 5.15625 24H8.9864C9.37462 24 9.68953 23.6852 9.68953 23.2969V17.6484C9.68953 16.9979 10.2187 16.4687 10.8693 16.4687H13.1285C13.7791 16.4687 14.3082 16.9979 14.3082 17.6484V23.2969C14.3082 23.6852 14.623 24 15.0113 24H18.8415C20.2676 24 21.4275 22.84 21.4275 21.4144V14.2097H21.7894C22.3793 14.2097 22.9342 13.9799 23.3518 13.5624C24.2124 12.7013 24.2128 11.3005 23.3529 10.4388Z" fill="#141414"/>
</svg>
