<svg width="24" height="24" viewBox="0 0 24 24" fill="none" xmlns="http://www.w3.org/2000/svg">
<path d="M12 2C10.0222 2 8.08879 2.58649 6.4443 3.6853C4.79981 4.78412 3.51809 6.3459 2.76121 8.17316C2.00433 10.0004 1.8063 12.0111 2.19215 13.9509C2.578 15.8907 3.53041 17.6725 4.92894 19.0711C6.32746 20.4696 8.10929 21.422 10.0491 21.8078C11.9889 22.1937 13.9996 21.9957 15.8268 21.2388C17.6541 20.4819 19.2159 19.2002 20.3147 17.5557C21.4135 15.9112 22 13.9778 22 12C21.9971 9.34871 20.9426 6.80684 19.0679 4.9321C17.1932 3.05736 14.6513 2.00287 12 2ZM12 20.3333C10.3518 20.3333 8.74066 19.8446 7.37025 18.9289C5.99984 18.0132 4.93174 16.7117 4.30101 15.189C3.67028 13.6663 3.50525 11.9908 3.82679 10.3742C4.14834 8.75774 4.94201 7.27288 6.10745 6.10744C7.27288 4.94201 8.75774 4.14833 10.3743 3.82679C11.9908 3.50525 13.6663 3.67027 15.189 4.301C16.7117 4.93173 18.0132 5.99984 18.9289 7.37025C19.8446 8.74066 20.3333 10.3518 20.3333 12C20.3309 14.2094 19.4522 16.3276 17.8899 17.8899C16.3276 19.4522 14.2094 20.3309 12 20.3333Z" fill="#141414"/>
<path d="M12.5975 6.21927C12.1169 6.13171 11.623 6.15084 11.1507 6.27531C10.6783 6.39977 10.2391 6.62652 9.86408 6.93952C9.48907 7.25253 9.18743 7.64412 8.98051 8.0866C8.7736 8.52908 8.66645 9.01163 8.66667 9.5001C8.66667 9.72112 8.75447 9.93308 8.91075 10.0894C9.06703 10.2456 9.27899 10.3334 9.50001 10.3334C9.72102 10.3334 9.93298 10.2456 10.0893 10.0894C10.2455 9.93308 10.3333 9.72112 10.3333 9.5001C10.3331 9.25492 10.387 9.0127 10.4912 8.79074C10.5953 8.56877 10.7471 8.37251 10.9359 8.21596C11.1246 8.05941 11.3455 7.94643 11.5829 7.88506C11.8202 7.82369 12.0682 7.81546 12.3092 7.86094C12.6389 7.92513 12.942 8.08633 13.1796 8.32388C13.4171 8.56143 13.5783 8.86451 13.6425 9.19427C13.7138 9.57059 13.6532 9.95997 13.4711 10.2969C13.289 10.6338 12.9964 10.8978 12.6425 11.0443C12.1987 11.2337 11.8213 11.551 11.5584 11.9557C11.2956 12.3604 11.1592 12.8342 11.1667 13.3168V13.6668C11.1667 13.8878 11.2545 14.0997 11.4107 14.256C11.567 14.4123 11.779 14.5001 12 14.5001C12.221 14.5001 12.433 14.4123 12.5893 14.256C12.7455 14.0997 12.8333 13.8878 12.8333 13.6668V13.3168C12.8271 13.1648 12.8653 13.0143 12.9433 12.8838C13.0213 12.7532 13.1357 12.6483 13.2725 12.5818C13.939 12.3075 14.4985 11.8246 14.8674 11.2054C15.2363 10.5863 15.3946 9.86431 15.3186 9.14765C15.2425 8.43098 14.9363 7.75826 14.4457 7.23031C13.9551 6.70237 13.3067 6.34763 12.5975 6.21927Z" fill="#141414"/>
<path d="M12 17.8334C12.4602 17.8334 12.8333 17.4603 12.8333 17.0001C12.8333 16.5398 12.4602 16.1667 12 16.1667C11.5398 16.1667 11.1667 16.5398 11.1667 17.0001C11.1667 17.4603 11.5398 17.8334 12 17.8334Z" fill="#141414"/>
</svg>
