<svg width="24" height="24" viewBox="0 0 24 24" fill="none" xmlns="http://www.w3.org/2000/svg">
<path d="M12 2C10.0222 2 8.08879 2.58649 6.4443 3.6853C4.79981 4.78412 3.51809 6.3459 2.76121 8.17316C2.00433 10.0004 1.8063 12.0111 2.19215 13.9509C2.578 15.8907 3.53041 17.6725 4.92894 19.0711C6.32746 20.4696 8.10929 21.422 10.0491 21.8078C11.9889 22.1937 13.9996 21.9957 15.8268 21.2388C17.6541 20.4819 19.2159 19.2002 20.3147 17.5557C21.4135 15.9112 22 13.9778 22 12C21.9971 9.34871 20.9426 6.80684 19.0679 4.9321C17.1932 3.05736 14.6513 2.00287 12 2ZM12 17.8333C11.8352 17.8333 11.6741 17.7845 11.537 17.6929C11.4 17.6013 11.2932 17.4712 11.2301 17.3189C11.167 17.1666 11.1505 16.9991 11.1827 16.8374C11.2148 16.6758 11.2942 16.5273 11.4107 16.4107C11.5273 16.2942 11.6758 16.2148 11.8374 16.1827C11.9991 16.1505 12.1666 16.167 12.3189 16.2301C12.4712 16.2932 12.6013 16.4 12.6929 16.537C12.7845 16.6741 12.8333 16.8352 12.8333 17C12.8333 17.221 12.7455 17.433 12.5893 17.5893C12.433 17.7455 12.221 17.8333 12 17.8333ZM13.2725 12.5833C13.136 12.6497 13.0218 12.7544 12.9438 12.8847C12.8658 13.0149 12.8274 13.165 12.8333 13.3167V13.6667C12.8333 13.8877 12.7455 14.0996 12.5893 14.2559C12.433 14.4122 12.221 14.5 12 14.5C11.779 14.5 11.567 14.4122 11.4107 14.2559C11.2545 14.0996 11.1667 13.8877 11.1667 13.6667V13.3167C11.1581 12.8342 11.2933 12.3602 11.5551 11.9549C11.8169 11.5496 12.1934 11.2314 12.6367 11.0408C12.9905 10.8943 13.2832 10.6304 13.4653 10.2935C13.6474 9.95653 13.7079 9.56715 13.6367 9.19083C13.5725 8.86107 13.4113 8.55799 13.1737 8.32044C12.9362 8.08289 12.6331 7.92169 12.3033 7.8575C12.0626 7.81293 11.8149 7.82197 11.578 7.88397C11.3411 7.94597 11.1208 8.05941 10.9327 8.21623C10.7446 8.37304 10.5934 8.56937 10.4898 8.79125C10.3862 9.01314 10.3328 9.25512 10.3333 9.5C10.3333 9.72101 10.2455 9.93297 10.0893 10.0893C9.93298 10.2455 9.72102 10.3333 9.5 10.3333C9.27899 10.3333 9.06703 10.2455 8.91075 10.0893C8.75447 9.93297 8.66667 9.72101 8.66667 9.5C8.66711 8.89633 8.83148 8.30412 9.14222 7.78657C9.45297 7.26903 9.89843 6.84559 10.431 6.56145C10.9637 6.27731 11.5634 6.14314 12.1663 6.17327C12.7693 6.20339 13.3527 6.39668 13.8543 6.7325C14.356 7.06832 14.757 7.53405 15.0146 8.08C15.2722 8.62594 15.3767 9.23159 15.317 9.83229C15.2572 10.433 15.0355 11.0062 14.6754 11.4907C14.3153 11.9752 13.8305 12.3529 13.2725 12.5833Z" fill="#141414"/>
</svg>
