<svg width="24" height="24" viewBox="0 0 24 24" fill="none" xmlns="http://www.w3.org/2000/svg">
<path d="M9.375 12.6104L9.57422 12.6201C10.0353 12.6664 10.4683 12.8707 10.7988 13.2012C11.1765 13.5789 11.389 14.0908 11.3896 14.625V19.875L11.3799 20.0742C11.3402 20.4695 11.1844 20.8442 10.9326 21.1514L10.7988 21.2988C10.4683 21.6293 10.0353 21.8336 9.57422 21.8799L9.375 21.8896H4.125C3.65754 21.8891 3.20702 21.7264 2.84863 21.4326L2.70117 21.2988C2.32346 20.9211 2.11099 20.4092 2.11035 19.875V14.625L2.12012 14.4258C2.16638 13.9647 2.37067 13.5317 2.70117 13.2012L2.84863 13.0674C3.20702 12.7736 3.65754 12.6109 4.125 12.6104H9.375ZM17.4805 12.6162C18.6267 12.6743 19.7139 13.1553 20.5293 13.9707L20.6885 14.1367C21.459 14.9875 21.8884 16.0967 21.8896 17.25L21.877 17.5928C21.8264 18.2758 21.6254 18.9391 21.2881 19.5352L21.1084 19.8281C20.6623 20.4957 20.0514 21.034 19.3379 21.3936L19.0254 21.5371C18.2836 21.8443 17.4766 21.953 16.6836 21.8555L16.3447 21.8008C15.5573 21.6441 14.8259 21.2863 14.2207 20.7646L13.9688 20.5312C13.3198 19.8824 12.8783 19.0553 12.6992 18.1553C12.5202 17.2553 12.6118 16.3224 12.9629 15.4746C13.3141 14.6268 13.9088 13.9015 14.6719 13.3916L14.9648 13.2119C15.6602 12.8184 16.4472 12.6104 17.25 12.6104L17.4805 12.6162ZM4.125 13.6396C3.89643 13.6396 3.67625 13.7197 3.50098 13.8633L3.42871 13.9287C3.24399 14.1134 3.13965 14.3638 3.13965 14.625V19.875C3.13965 20.1362 3.24399 20.3866 3.42871 20.5713L3.50098 20.6367C3.67625 20.7803 3.89643 20.8604 4.125 20.8604H9.375C9.63624 20.8604 9.88657 20.756 10.0713 20.5713L10.1367 20.499C10.2803 20.3238 10.3604 20.1036 10.3604 19.875V14.625C10.3604 14.3964 10.2803 14.1762 10.1367 14.001L10.0713 13.9287C9.88657 13.744 9.63624 13.6396 9.375 13.6396H4.125ZM18.6318 13.915C17.9723 13.6418 17.2461 13.5698 16.5459 13.709C15.9331 13.8309 15.3635 14.1096 14.8926 14.5156L14.6973 14.6973C14.2555 15.139 13.9375 15.687 13.7715 16.2861L13.709 16.5459C13.5698 17.2461 13.6418 17.9723 13.915 18.6318L14.0264 18.874C14.3061 19.4293 14.7247 19.9049 15.2441 20.252L15.4717 20.3916C16.0128 20.6979 16.6252 20.8604 17.25 20.8604L17.4287 20.8555C18.3207 20.8103 19.1672 20.4363 19.8018 19.8018L19.9248 19.6719C20.5243 19.0099 20.8593 18.1473 20.8604 17.25L20.8506 16.9834C20.8112 16.4518 20.6542 15.9355 20.3916 15.4717L20.252 15.2441C19.9049 14.7247 19.4293 14.3061 18.874 14.0264L18.6318 13.915ZM9.375 2.11035L9.57422 2.12012C10.0353 2.16638 10.4683 2.37067 10.7988 2.70117L10.9326 2.84863C11.2264 3.20702 11.3891 3.65754 11.3896 4.125V9.375L11.3799 9.57422C11.3402 9.96945 11.1844 10.3442 10.9326 10.6514L10.7988 10.7988C10.4683 11.1293 10.0353 11.3336 9.57422 11.3799L9.375 11.3896H4.125C3.65754 11.3891 3.20702 11.2264 2.84863 10.9326L2.70117 10.7988C2.32346 10.4211 2.11099 9.90917 2.11035 9.375V4.125L2.12012 3.92578C2.16638 3.46474 2.37067 3.03167 2.70117 2.70117L2.84863 2.56738C3.20702 2.2736 3.65754 2.11091 4.125 2.11035H9.375ZM19.875 2.11035L20.0742 2.12012C20.5353 2.16638 20.9683 2.37067 21.2988 2.70117C21.6765 3.07889 21.889 3.59083 21.8896 4.125V9.375L21.8799 9.57422C21.8336 10.0353 21.6293 10.4683 21.2988 10.7988C20.9683 11.1293 20.5353 11.3336 20.0742 11.3799L19.875 11.3896H14.625C14.1575 11.3891 13.707 11.2264 13.3486 10.9326L13.2012 10.7988C12.8235 10.4211 12.611 9.90917 12.6104 9.375V4.125L12.6201 3.92578C12.6664 3.46474 12.8707 3.03167 13.2012 2.70117L13.3486 2.56738C13.707 2.2736 14.1575 2.11091 14.625 2.11035H19.875ZM4.125 3.13965C3.89643 3.13965 3.67625 3.21968 3.50098 3.36328L3.42871 3.42871C3.24399 3.61343 3.13965 3.86376 3.13965 4.125V9.375C3.13965 9.63624 3.24399 9.88657 3.42871 10.0713L3.50098 10.1367C3.67625 10.2803 3.89643 10.3604 4.125 10.3604H9.375C9.63624 10.3604 9.88657 10.256 10.0713 10.0713L10.1367 9.99902C10.2803 9.82375 10.3604 9.60357 10.3604 9.375V4.125C10.3604 3.89643 10.2803 3.67625 10.1367 3.50098L10.0713 3.42871C9.88657 3.24399 9.63624 3.13965 9.375 3.13965H4.125ZM14.625 3.13965C14.3964 3.13965 14.1762 3.21968 14.001 3.36328L13.9287 3.42871C13.744 3.61343 13.6396 3.86376 13.6396 4.125V9.375C13.6396 9.63624 13.744 9.88657 13.9287 10.0713L14.001 10.1367C14.1762 10.2803 14.3964 10.3604 14.625 10.3604H19.875C20.1362 10.3604 20.3866 10.256 20.5713 10.0713L20.6367 9.99902C20.7803 9.82375 20.8604 9.60357 20.8604 9.375V4.125C20.8604 3.89643 20.7803 3.67625 20.6367 3.50098L20.5713 3.42871C20.3866 3.24399 20.1362 3.13965 19.875 3.13965H14.625Z" fill="#141414" stroke="#141414" stroke-width="0.28"/>
</svg>
