<svg width="24" height="24" viewBox="0 0 24 24" fill="none" xmlns="http://www.w3.org/2000/svg">
<path d="M6.1875 15.251V21.1992L2.55273 20.2881C2.54661 20.2855 2.54048 20.2832 2.53516 20.2793L2.5166 20.2607C2.50614 20.2462 2.50008 20.2288 2.5 20.2109V14.0215L6.1875 15.251ZM21.4219 20.2109L21.418 20.2373C21.4152 20.2457 21.4105 20.2535 21.4053 20.2607C21.3959 20.2736 21.3828 20.282 21.3682 20.2881L17.7344 21.1992V15.251L21.4219 14.0215V20.2109ZM10.875 20.2441L7.1875 21.1953V15.251L10.875 14.0215V20.2441ZM16.7344 15.251V21.1953L13.0469 20.2441V14.0215L16.7344 15.251ZM9.79297 13.3281L6.6875 14.3633L3.58203 13.3281L6.6875 12.293L9.79297 13.3281ZM20.3398 13.3281L17.2344 14.3633L14.1289 13.3281L17.2344 12.293L20.3398 13.3281ZM11.4609 5.45312V11.6445L7.77344 10.5693V4.22363L11.4609 5.45312ZM16.1484 10.5693L12.4609 11.6445V5.45312L16.1484 4.22363V10.5693ZM11.9883 2.50488L15.0674 3.53027L11.9609 4.56641L8.85352 3.53027L11.9336 2.50488C11.9424 2.50194 11.9517 2.5 11.9609 2.5L11.9883 2.50488Z" stroke="#141414"/>
</svg>
