<svg width="24" height="24" viewBox="0 0 24 24" fill="none" xmlns="http://www.w3.org/2000/svg">
<path d="M17.2344 11.7656L12.5469 13.3281L17.2344 14.8906L21.9219 13.3281L17.2344 11.7656ZM2 13.3281L6.6875 14.8906L11.375 13.3281L6.6875 11.7656L2 13.3281ZM12.1462 2.03006C12.0259 1.98998 11.8959 1.98998 11.7756 2.03006L7.27344 3.5308L11.9609 5.0933L16.6485 3.5308L12.1462 2.03006ZM7.27344 22L11.375 20.6328V14.5634L7.27344 15.9306V22ZM2 20.2105C1.99999 20.3335 2.03868 20.4534 2.1106 20.5531C2.18251 20.6529 2.28399 20.7275 2.40066 20.7664L6.10157 22V15.9306L2 14.5634V20.2105ZM12.5469 20.6328L16.6485 22V15.9306L12.5469 14.5634V20.6328ZM17.8203 22L21.5212 20.7664C21.6379 20.7275 21.7394 20.6529 21.8113 20.5531C21.8832 20.4533 21.9219 20.3335 21.9219 20.2105V14.5634L17.8203 15.9306V22ZM7.27344 10.9453L11.375 12.3125V6.13327L7.27344 4.76604V10.9453ZM16.6485 10.9453V4.76604L12.5469 6.13327V12.3125L16.6485 10.9453Z" fill="#141414"/>
</svg>
