<svg width="24" height="24" viewBox="0 0 24 24" fill="none" xmlns="http://www.w3.org/2000/svg">
<path d="M11.7305 1.34961L11.9941 1.36328C12.2564 1.38949 12.5139 1.45435 12.7578 1.55664L12.9961 1.6709C13.1506 1.75462 13.2966 1.85331 13.4316 1.96582L13.625 2.14453L13.626 2.14551L17.8936 6.51367H17.8945C18.3798 7.00944 18.6516 7.67635 18.6504 8.37012V12.0947C18.6504 12.2671 18.5818 12.4328 18.46 12.5547C18.3381 12.6766 18.1724 12.7451 18 12.7451C17.8276 12.7451 17.6619 12.6766 17.54 12.5547C17.4182 12.4328 17.3496 12.2671 17.3496 12.0947V8.37012L17.3438 8.23828C17.3183 7.97686 17.2172 7.72819 17.0527 7.52344L16.9648 7.4248L12.6953 3.05469C12.5696 2.92645 12.4195 2.82439 12.2539 2.75488C12.1295 2.70269 11.998 2.66948 11.8643 2.65625L11.7305 2.65039H4C3.64196 2.65039 3.2981 2.79175 3.04492 3.04492C2.79175 3.2981 2.65039 3.64196 2.65039 4V20C2.65039 20.358 2.79175 20.7019 3.04492 20.9551C3.2981 21.2083 3.64196 21.3496 4 21.3496H16.001L16.127 21.3447C16.2526 21.3329 16.376 21.3019 16.4932 21.2539L16.4961 21.2529L16.6182 21.2197C16.7415 21.1984 16.8697 21.2124 16.9863 21.2627C17.1418 21.3298 17.2645 21.4557 17.3291 21.6123C17.3937 21.7689 17.395 21.9443 17.332 22.1016C17.2691 22.2589 17.1471 22.3854 16.9922 22.4541L16.9883 22.4561C16.7531 22.553 16.5052 22.6145 16.2529 22.6387L16 22.6504H4C3.38527 22.6497 2.79261 22.4352 2.32129 22.0488L2.12695 21.873C1.6302 21.3763 1.35045 20.7025 1.34961 20V4L1.36328 3.73828C1.42408 3.13185 1.69223 2.56167 2.12695 2.12695L2.32129 1.95117C2.79261 1.56485 3.38527 1.35035 4 1.34961H11.7305Z" fill="#141414" stroke="#141414" stroke-width="0.3"/>
<path d="M15.795 8.00003H14.5C13.8372 7.99924 13.2018 7.73559 12.7331 7.26692C12.2644 6.79825 12.0008 6.16283 12 5.50003V2.15503C12 2.02242 12.0527 1.89524 12.1464 1.80148C12.2402 1.70771 12.3674 1.65503 12.5 1.65503C12.6326 1.65503 12.7598 1.70771 12.8536 1.80148C12.9473 1.89524 13 2.02242 13 2.15503V5.50003C13 5.89785 13.158 6.27939 13.4393 6.56069C13.7206 6.842 14.1022 7.00003 14.5 7.00003H15.795C15.9276 7.00003 16.0548 7.05271 16.1486 7.14648C16.2423 7.24024 16.295 7.36742 16.295 7.50003C16.295 7.63264 16.2423 7.75981 16.1486 7.85358C16.0548 7.94735 15.9276 8.00003 15.795 8.00003Z" fill="#141414"/>
<path d="M17 10.9229C17.2209 10.9229 17.4374 10.9868 17.623 11.1064L18.1084 11.4102C19.2519 12.0946 20.4834 12.622 21.7695 12.9775H21.7686C22.0184 13.038 22.2407 13.1803 22.4004 13.3818C22.561 13.5845 22.6495 13.8352 22.6504 14.0938V14.9502L22.6357 15.4209C22.5692 16.5175 22.2663 17.5886 21.7461 18.5605C21.2259 19.5324 20.5025 20.3783 19.627 21.042L19.2432 21.3154L17.6377 22.3857C17.4958 22.4798 17.3351 22.5411 17.168 22.5654L17 22.5771C16.7727 22.5769 16.5502 22.5092 16.3613 22.3828V22.3838L14.7568 21.3135C13.8392 20.7032 13.0664 19.9023 12.4893 18.9678L12.2539 18.5596C11.6596 17.4494 11.3486 16.2095 11.3496 14.9502V14.0938L11.3545 13.9971C11.3741 13.7729 11.4589 13.5583 11.5996 13.3809L11.6631 13.3076C11.816 13.145 12.0133 13.0295 12.2314 12.9766L12.7793 12.8145C14.049 12.4103 15.2595 11.8354 16.377 11.1064L16.5215 11.0273C16.6711 10.9589 16.8342 10.9229 17 10.9229ZM16.998 12.249C15.6565 13.1127 14.1947 13.7718 12.6592 14.2051L12.6504 14.9521C12.6495 15.997 12.9064 17.026 13.3994 17.9473L13.5947 18.2861C14.0738 19.0621 14.7157 19.7267 15.4775 20.2334L16.999 21.2461L18.5225 20.2314L18.8418 20.0049C19.568 19.4543 20.168 18.7524 20.5996 17.9463C21.093 17.0248 21.3505 15.9954 21.3496 14.9502V14.2051C19.8103 13.7715 18.3436 13.1134 16.998 12.249Z" fill="#141414" stroke="#141414" stroke-width="0.3"/>
<path d="M16.5 18C16.3674 17.9999 16.2403 17.9472 16.1465 17.8535L15.1465 16.8535C15.0554 16.7592 15.005 16.6329 15.0062 16.5018C15.0073 16.3707 15.0599 16.2453 15.1526 16.1525C15.2453 16.0598 15.3707 16.0073 15.5018 16.0061C15.6329 16.005 15.7592 16.0554 15.8535 16.1465L16.5 16.793L18.1465 15.1465C18.2408 15.0554 18.3671 15.005 18.4982 15.0061C18.6293 15.0073 18.7547 15.0598 18.8474 15.1526C18.9401 15.2453 18.9927 15.3707 18.9938 15.5018C18.995 15.6329 18.9446 15.7592 18.8535 15.8535L16.8535 17.8535C16.7598 17.9472 16.6326 17.9999 16.5 18Z" fill="#141414"/>
<path d="M9 6.5H5C4.86739 6.5 4.74021 6.44732 4.64645 6.35355C4.55268 6.25979 4.5 6.13261 4.5 6C4.5 5.86739 4.55268 5.74021 4.64645 5.64645C4.74021 5.55268 4.86739 5.5 5 5.5H9C9.13261 5.5 9.25979 5.55268 9.35355 5.64645C9.44732 5.74021 9.5 5.86739 9.5 6C9.5 6.13261 9.44732 6.25979 9.35355 6.35355C9.25979 6.44732 9.13261 6.5 9 6.5ZM12 9.5H5C4.86739 9.5 4.74021 9.44732 4.64645 9.35355C4.55268 9.25979 4.5 9.13261 4.5 9C4.5 8.86739 4.55268 8.74021 4.64645 8.64645C4.74021 8.55268 4.86739 8.5 5 8.5H12C12.1326 8.5 12.2598 8.55268 12.3536 8.64645C12.4473 8.74021 12.5 8.86739 12.5 9C12.5 9.13261 12.4473 9.25979 12.3536 9.35355C12.2598 9.44732 12.1326 9.5 12 9.5ZM13 12.5H5C4.86739 12.5 4.74021 12.4473 4.64645 12.3536C4.55268 12.2598 4.5 12.1326 4.5 12C4.5 11.8674 4.55268 11.7402 4.64645 11.6464C4.74021 11.5527 4.86739 11.5 5 11.5H13C13.1326 11.5 13.2598 11.5527 13.3536 11.6464C13.4473 11.7402 13.5 11.8674 13.5 12C13.5 12.1326 13.4473 12.2598 13.3536 12.3536C13.2598 12.4473 13.1326 12.5 13 12.5ZM10 15.5H5C4.86739 15.5 4.74021 15.4473 4.64645 15.3536C4.55268 15.2598 4.5 15.1326 4.5 15C4.5 14.8674 4.55268 14.7402 4.64645 14.6464C4.74021 14.5527 4.86739 14.5 5 14.5H10C10.1326 14.5 10.2598 14.5527 10.3536 14.6464C10.4473 14.7402 10.5 14.8674 10.5 15C10.5 15.1326 10.4473 15.2598 10.3536 15.3536C10.2598 15.4473 10.1326 15.5 10 15.5ZM10 18.5H5C4.86739 18.5 4.74021 18.4473 4.64645 18.3536C4.55268 18.2598 4.5 18.1326 4.5 18C4.5 17.8674 4.55268 17.7402 4.64645 17.6464C4.74021 17.5527 4.86739 17.5 5 17.5H10C10.1326 17.5 10.2598 17.5527 10.3536 17.6464C10.4473 17.7402 10.5 17.8674 10.5 18C10.5 18.1326 10.4473 18.2598 10.3536 18.3536C10.2598 18.4473 10.1326 18.5 10 18.5Z" fill="#141414"/>
</svg>
