<svg width="24" height="24" viewBox="0 0 24 24" fill="none" xmlns="http://www.w3.org/2000/svg">
<path d="M21.2666 13.0658C20.4297 12.8511 19.6187 12.5461 18.8476 12.1563C18.6095 12.0372 18.3905 11.9229 18.1905 11.8134C17.7952 11.5944 17.4809 11.3991 17.2762 11.2658C17.2645 11.2576 17.2517 11.2512 17.2381 11.2468C17.0871 11.1588 16.9149 11.114 16.7402 11.1174C16.5655 11.1207 16.3951 11.1721 16.2476 11.2658C15.0189 12.0693 13.6727 12.6765 12.2571 13.0658C12.0487 13.1164 11.8633 13.2354 11.7304 13.4037C11.5975 13.572 11.5248 13.7799 11.5238 13.9944V14.8087C11.5233 15.9846 11.8134 17.1425 12.3684 18.1793C12.9233 19.2161 13.7259 20.0997 14.7047 20.7515L15.1476 21.0467L16.2333 21.7705C16.3194 21.8272 16.4143 21.8691 16.5143 21.8943H16.519C16.5971 21.9213 16.6793 21.9341 16.7619 21.9324C16.95 21.9308 17.1337 21.8746 17.2905 21.7705L18.819 20.7515C19.7978 20.0997 20.6004 19.2161 21.1554 18.1793C21.7103 17.1425 22.0005 15.9846 22 14.8087V13.9944C21.999 13.7799 21.9263 13.572 21.7934 13.4037C21.6605 13.2354 21.475 13.1164 21.2666 13.0658ZM18.5285 15.6706L16.6238 17.5753C16.5335 17.6638 16.4121 17.7134 16.2857 17.7134C16.1593 17.7134 16.0379 17.6638 15.9476 17.5753L14.9952 16.6229C14.9056 16.5333 14.8552 16.4116 14.8552 16.2848C14.8552 16.158 14.9056 16.0364 14.9952 15.9467C15.0849 15.8571 15.2065 15.8067 15.3333 15.8067C15.4601 15.8067 15.5817 15.8571 15.6714 15.9467L16.2857 16.5658L17.8524 14.9944C17.8968 14.95 17.9495 14.9147 18.0075 14.8907C18.0655 14.8667 18.1277 14.8543 18.1905 14.8543C18.2532 14.8543 18.3154 14.8667 18.3734 14.8907C18.4314 14.9147 18.4841 14.95 18.5285 14.9944C18.5729 15.0388 18.6082 15.0915 18.6322 15.1495C18.6562 15.2075 18.6686 15.2697 18.6686 15.3325C18.6686 15.3953 18.6562 15.4574 18.6322 15.5154C18.6082 15.5734 18.5729 15.6262 18.5285 15.6706Z" fill="#141414"/>
<path d="M17.5142 6.87624L13.4428 2.71435C13.2967 2.56647 13.1318 2.43839 12.9523 2.33339V5.80957C12.9535 6.18811 13.1043 6.55081 13.372 6.81847C13.6397 7.08614 14.0024 7.23701 14.3809 7.23814H17.8047C17.7188 7.10913 17.6216 6.98802 17.5142 6.87624ZM18.1619 8.19052H14.3809C13.7494 8.19052 13.1438 7.93967 12.6973 7.49316C12.2508 7.04664 12 6.44104 12 5.80957V2.01911C11.9149 2.00567 11.8289 1.9993 11.7428 2.00006H4.38094C3.74948 2.00006 3.14388 2.25091 2.69736 2.69742C2.25085 3.14394 2 3.74954 2 4.38101V19.6191C2 20.2505 2.25085 20.8561 2.69736 21.3026C3.14388 21.7492 3.74948 22 4.38094 22H14.8619L14.1762 21.5429C13.0666 20.8048 12.1569 19.8038 11.5279 18.629C10.899 17.4542 10.5704 16.1421 10.5714 14.8095V13.9953C10.5716 13.7008 10.6401 13.4103 10.7714 13.1467C10.9028 12.8832 11.0935 12.6537 11.3285 12.4762H5.33332C5.20703 12.4762 5.08591 12.4261 4.99661 12.3367C4.9073 12.2474 4.85713 12.1263 4.85713 12C4.85713 11.8737 4.9073 11.7526 4.99661 11.6633C5.08591 11.574 5.20703 11.5238 5.33332 11.5238H13.7809C14.4552 11.2198 15.1062 10.8664 15.7285 10.4667C16.0077 10.2893 16.328 10.1869 16.6583 10.1694C16.9886 10.1519 17.3178 10.2198 17.6142 10.3667L17.6476 10.381L17.7904 10.4667C17.8904 10.5334 18.0238 10.6143 18.1904 10.7143V8.5429C18.1906 8.42485 18.181 8.307 18.1619 8.19052ZM10.5714 17.7143C10.5714 17.8406 10.5212 17.9617 10.4319 18.051C10.3426 18.1403 10.2215 18.1905 10.0952 18.1905H5.33332C5.20703 18.1905 5.08591 18.1403 4.99661 18.051C4.9073 17.9617 4.85713 17.8406 4.85713 17.7143C4.85713 17.588 4.9073 17.4669 4.99661 17.3776C5.08591 17.2883 5.20703 17.2381 5.33332 17.2381H10.0952C10.2215 17.2381 10.3426 17.2883 10.4319 17.3776C10.5212 17.4669 10.5714 17.588 10.5714 17.7143ZM5.33332 14.381H9.14283C9.26913 14.381 9.39025 14.4311 9.47955 14.5204C9.56885 14.6098 9.61902 14.7309 9.61902 14.8572C9.61902 14.9835 9.56885 15.1046 9.47955 15.1939C9.39025 15.2832 9.26913 15.3334 9.14283 15.3334H5.33332C5.20703 15.3334 5.08591 15.2832 4.99661 15.1939C4.9073 15.1046 4.85713 14.9835 4.85713 14.8572C4.85713 14.7309 4.9073 14.6098 4.99661 14.5204C5.08591 14.4311 5.20703 14.381 5.33332 14.381ZM5.33332 5.80957H9.14283C9.26913 5.80957 9.39025 5.85974 9.47955 5.94905C9.56885 6.03835 9.61902 6.15947 9.61902 6.28576C9.61902 6.41206 9.56885 6.53318 9.47955 6.62248C9.39025 6.71178 9.26913 6.76195 9.14283 6.76195H5.33332C5.20703 6.76195 5.08591 6.71178 4.99661 6.62248C4.9073 6.53318 4.85713 6.41206 4.85713 6.28576C4.85713 6.15947 4.9073 6.03835 4.99661 5.94905C5.08591 5.85974 5.20703 5.80957 5.33332 5.80957ZM12 9.61909H5.33332C5.20703 9.61909 5.08591 9.56892 4.99661 9.47961C4.9073 9.39031 4.85713 9.26919 4.85713 9.1429C4.85713 9.0166 4.9073 8.89548 4.99661 8.80618C5.08591 8.71688 5.20703 8.66671 5.33332 8.66671H12C12.1263 8.66671 12.2474 8.71688 12.3367 8.80618C12.426 8.89548 12.4762 9.0166 12.4762 9.1429C12.4762 9.26919 12.426 9.39031 12.3367 9.47961C12.2474 9.56892 12.1263 9.61909 12 9.61909Z" fill="#141414"/>
</svg>
