<svg width="24" height="24" viewBox="0 0 24 24" fill="none" xmlns="http://www.w3.org/2000/svg">
<path d="M0 9.7995L8.66339 14.7596L10.9141 11.9357L1.79174 7.11899L0 9.7995ZM13.0617 11.9251L15.3207 14.7596L24 9.79042L22.1839 6.9234L13.0617 11.9251ZM3.10646 6.22396L11.9858 10.9123L20.8778 6.03678L12.0051 1.8457L3.10646 6.22396Z" fill="#141414"/>
<path d="M2.26215 17.3867L11.2896 22.1533V13.7187L9.38635 16.1067C9.28186 16.2379 9.13384 16.3274 8.9691 16.3589C8.80436 16.3904 8.63379 16.3619 8.48825 16.2785L2.26215 12.7139V17.3867ZM12.6945 13.7187V22.1315L21.7219 17.1747V12.7139L15.4958 16.2785C15.3503 16.3618 15.1797 16.3903 15.015 16.3588C14.8503 16.3273 14.7023 16.2378 14.5978 16.1067L12.6945 13.7187Z" fill="#141414"/>
</svg>
