<svg width="24" height="24" viewBox="0 0 24 24" fill="none" xmlns="http://www.w3.org/2000/svg">
<g clip-path="url(#clip0_86_7485)">
<path d="M23.9075 9.7821L21.6621 6.23974C21.5989 6.14046 21.5087 6.06122 21.4021 6.01128L12.2687 1.7C12.185 1.66052 12.0935 1.6404 12.001 1.64113C11.9085 1.64187 11.8173 1.66345 11.7343 1.70426L2.5859 6.20231C2.48901 6.25032 2.40629 6.32275 2.3459 6.41246L0.100416 9.76944C-0.0933784 10.0592 0.00292927 10.4721 0.306365 10.6457L2.24201 11.7531V16.9207C2.24201 17.0327 2.27259 17.1426 2.33043 17.2385C2.38828 17.3344 2.4712 17.4127 2.57026 17.465L11.7126 22.2889C11.8932 22.3841 12.1169 22.3823 12.2961 22.2841L21.4384 17.2678C21.7364 17.1043 21.8454 16.7302 21.6819 16.4322C21.5183 16.1343 21.1441 16.0253 20.8461 16.1888L12.6155 20.7048V13.3374L14.2834 15.4287C14.4682 15.6603 14.814 15.7259 15.0705 15.5792L23.6934 10.6456C23.991 10.4754 24.0916 10.0725 23.9075 9.7821ZM12.0113 2.93964L19.7869 6.60995L11.9944 10.8797L4.21303 6.7739L12.0113 2.93964ZM3.06088 7.55769L11.0552 11.7758L9.08283 14.2489L1.49067 9.90518L3.06088 7.55769ZM3.47313 16.5496V12.4575L8.92939 15.5792C9.1857 15.7258 9.53195 15.66 9.71642 15.4287L11.3844 13.3374V20.7239L3.47313 16.5496ZM14.9169 14.2489L12.9372 11.7666L20.9314 7.38636L22.523 9.89713L14.9169 14.2489Z" fill="#141414"/>
<path d="M21.1422 15.0669C21.5388 15.0669 21.8603 14.7454 21.8603 14.3488C21.8603 13.9521 21.5388 13.6306 21.1422 13.6306C20.7455 13.6306 20.424 13.9521 20.424 14.3488C20.424 14.7454 20.7455 15.0669 21.1422 15.0669Z" fill="#141414"/>
</g>
<defs>
<clipPath id="clip0_86_7485">
<rect width="24" height="24" fill="white"/>
</clipPath>
</defs>
</svg>
