<svg width="24" height="24" viewBox="0 0 24 24" fill="none" xmlns="http://www.w3.org/2000/svg">
<path d="M11.9873 1.90039C12.2785 1.90039 12.5577 2.01582 12.7637 2.22168L12.8369 2.30273C12.9759 2.47242 13.0601 2.67988 13.0801 2.89844H16.4805C16.9041 2.89844 17.3107 3.06681 17.6104 3.36621L17.7168 3.4834C17.9499 3.76769 18.079 4.12528 18.0791 4.49609V14.4658C18.5595 14.7447 18.979 15.1173 19.3105 15.5635L19.4346 15.7402C19.7128 16.159 19.9122 16.6262 20.0215 17.1182L20.0625 17.3301C20.1336 17.7549 20.1373 18.1883 20.0732 18.6143L20.0352 18.8271C19.9341 19.3207 19.7427 19.7907 19.4717 20.2139L19.3506 20.3926C19.0569 20.8019 18.6906 21.153 18.2705 21.4287L18.0869 21.542C17.6514 21.796 17.1732 21.9677 16.6768 22.0479L16.4639 22.0762C15.8913 22.138 15.3116 22.0787 14.7637 21.9014C14.2283 21.7281 13.735 21.4457 13.3135 21.0732H4.49805C4.12719 21.0732 3.7697 20.944 3.48535 20.7109L3.36816 20.6055C3.06857 20.3059 2.90047 19.8993 2.90039 19.4756V4.49609C2.90049 4.07244 3.06859 3.66578 3.36816 3.36621L3.48535 3.26074C3.7697 3.02774 4.12721 2.89844 4.49805 2.89844H7.89844C7.92176 2.64383 8.03258 2.40394 8.21484 2.22168L8.29492 2.14844C8.49034 1.98831 8.73636 1.90046 8.99121 1.90039H11.9873ZM16.251 15.0918C15.8344 15.0529 15.4149 15.1049 15.0215 15.2432L14.8545 15.3076C14.4693 15.4704 14.1248 15.7147 13.8438 16.0225L13.7266 16.1582C13.4641 16.484 13.2759 16.8623 13.1738 17.2666L13.1357 17.4414C13.0476 17.9111 13.0772 18.3951 13.2217 18.8506L13.2812 19.0195C13.4316 19.4084 13.6638 19.7613 13.9639 20.0527L14.1221 20.1953C14.5018 20.5134 14.958 20.7294 15.4473 20.8213L15.6582 20.8525C16.1504 20.9079 16.6499 20.8362 17.1084 20.6426L17.3008 20.5527C17.7419 20.327 18.1192 19.9911 18.3945 19.5762C18.709 19.1023 18.8765 18.5463 18.877 17.9775L18.8721 17.7988C18.8467 17.3827 18.7318 16.9761 18.5342 16.6074C18.3365 16.2386 18.0611 15.9176 17.7285 15.666L17.583 15.5625C17.2345 15.3312 16.8406 15.1786 16.4287 15.1143L16.251 15.0918ZM4.49805 4.09766C4.39228 4.09766 4.29068 4.13915 4.21582 4.21387C4.14103 4.28866 4.09873 4.39033 4.09863 4.49609V19.4756C4.09871 19.5814 4.14101 19.683 4.21582 19.7578C4.29068 19.8326 4.39226 19.875 4.49805 19.875H12.3604C12.0542 19.2902 11.8918 18.6403 11.8916 17.9785L11.9004 17.71C11.9413 17.0851 12.1245 16.4762 12.4385 15.9316L12.5811 15.7041C12.9287 15.1834 13.3916 14.7483 13.9355 14.4336C14.5574 14.074 15.2631 13.8836 15.9814 13.8828H15.9824L16.2402 13.8926C16.4556 13.9072 16.6692 13.9399 16.8799 13.9873V4.49609C16.8798 4.39036 16.8384 4.28865 16.7637 4.21387C16.6888 4.13899 16.5864 4.09766 16.4805 4.09766H13.0801C13.06 4.31618 12.9759 4.52372 12.8369 4.69336L12.7637 4.77441C12.5577 4.98017 12.2785 5.0957 11.9873 5.0957H8.99121C8.73622 5.09563 8.49039 5.00698 8.29492 4.84668L8.21484 4.77441C8.03266 4.59223 7.92182 4.35214 7.89844 4.09766H4.49805ZM9.0918 3.89746H11.8877V3.09863H9.0918V3.89746Z" fill="#141414" stroke="#141414" stroke-width="0.2"/>
<path d="M17.0404 16.3176C17.1997 16.3177 17.3525 16.3808 17.4652 16.4934C17.578 16.6062 17.641 16.7597 17.641 16.9192C17.6409 17.0386 17.6057 17.1543 17.5404 17.2522L17.4652 17.344L16.8275 17.9768L17.4652 18.6106L17.5404 18.7014C17.5623 18.7339 17.5809 18.7686 17.5961 18.8049C17.6265 18.8778 17.6419 18.9564 17.642 19.0354C17.642 19.1144 17.6264 19.1929 17.5961 19.2659C17.5809 19.3024 17.5624 19.3377 17.5404 19.3704L17.4652 19.4612C17.4372 19.489 17.4062 19.5137 17.3734 19.5354L17.2699 19.5911C17.1972 19.6208 17.119 19.6344 17.0404 19.634V19.635C16.9618 19.6354 16.8837 19.6207 16.8109 19.5911C16.738 19.5613 16.6716 19.5167 16.6156 19.4612H16.6146L15.9809 18.8235L15.349 19.4612H15.348C15.3202 19.4888 15.2898 19.5138 15.2572 19.5354L15.1527 19.5911C15.0799 19.6208 15.0019 19.6344 14.9232 19.634L14.9242 19.635C14.8454 19.6355 14.7667 19.6208 14.6937 19.5911C14.6571 19.5761 14.6221 19.5571 14.5892 19.5354L14.4984 19.4612C14.4704 19.4334 14.4452 19.403 14.4232 19.3704L14.3666 19.2659C14.3363 19.193 14.3207 19.1143 14.3207 19.0354C14.3208 18.9564 14.3362 18.8778 14.3666 18.8049L14.4232 18.7014C14.4452 18.6688 14.4704 18.6384 14.4984 18.6106L15.1351 17.9768L14.4984 17.344H14.4975C14.3849 17.2313 14.3218 17.0784 14.3217 16.9192C14.3217 16.7598 14.3848 16.6062 14.4975 16.4934L14.5892 16.4182C14.6873 16.3528 14.8036 16.3176 14.9232 16.3176C15.0826 16.3177 15.2353 16.3808 15.348 16.4934H15.349L15.9809 17.1301L16.6146 16.4934L16.7064 16.4182C16.8045 16.3529 16.9208 16.3176 17.0404 16.3176ZM9.98964 15.8801C10.1485 15.8801 10.3011 15.9436 10.4135 16.0559L10.4887 16.1467C10.5539 16.2445 10.5892 16.3605 10.5892 16.4797C10.5892 16.5988 10.5537 16.7141 10.4887 16.8118L10.4135 16.9036C10.3011 17.0157 10.1484 17.0784 9.98964 17.0784H5.9955C5.87639 17.0783 5.76113 17.0429 5.66347 16.9778L5.57167 16.9036C5.45935 16.7912 5.39694 16.6386 5.39687 16.4797C5.39687 16.3209 5.45945 16.1683 5.57167 16.0559L5.66347 15.9807C5.76109 15.9157 5.87647 15.8802 5.9955 15.8801H9.98964ZM14.9828 11.886C15.1417 11.886 15.2942 11.9494 15.4066 12.0618L15.4818 12.1526C15.5469 12.2502 15.5823 12.3656 15.5824 12.4846C15.5824 12.6038 15.547 12.7199 15.4818 12.8176L15.4066 12.9084C15.2942 13.0208 15.1417 13.0842 14.9828 13.0842H5.9955C5.87643 13.0842 5.76111 13.0487 5.66347 12.9836L5.57167 12.9084C5.45952 12.7961 5.39687 12.6434 5.39687 12.4846C5.39699 12.326 5.45963 12.174 5.57167 12.0618L5.66347 11.9866C5.76111 11.9215 5.87643 11.886 5.9955 11.886H14.9828ZM14.9828 7.89185L15.101 7.90356C15.2158 7.92663 15.3225 7.98263 15.4066 8.06665L15.4818 8.15845C15.5469 8.25607 15.5824 8.37145 15.5824 8.49048C15.5824 8.60973 15.547 8.72573 15.4818 8.82349L15.4066 8.91431C15.2942 9.0267 15.1417 9.09009 14.9828 9.09009H5.9955C5.87647 9.09003 5.76109 9.05454 5.66347 8.9895L5.57167 8.91431C5.45945 8.80194 5.39687 8.64929 5.39687 8.49048C5.39694 8.33163 5.45935 8.17898 5.57167 8.06665L5.66347 7.99243C5.76113 7.92731 5.87639 7.8919 5.9955 7.89185H14.9828Z" fill="#141414" stroke="#141414" stroke-width="0.2"/>
</svg>
