<svg width="24" height="24" viewBox="0 0 24 24" fill="none" xmlns="http://www.w3.org/2000/svg">
<path d="M3.10156 12.5C3.219 14.6151 4.07138 16.5342 5.41016 18.0029L5.69629 18.3027C7.30846 19.9149 9.53763 20.914 11.998 20.9141C13.1667 20.9141 14.2834 20.6889 15.3047 20.2812L15.7363 20.0957C16.6082 19.6924 17.4087 19.1503 18.1084 18.4922L18.1094 18.4932C18.2382 18.3723 18.32 18.2147 18.3408 18.0381L18.3457 17.9609C18.3488 17.783 18.2903 17.612 18.1748 17.4736L18.1221 17.417L17.3809 16.6748H20.3447V19.6377L19.5938 18.8877C19.3418 18.6347 18.9555 18.6023 18.668 18.7832L18.5508 18.874V18.875C17.8923 19.5032 17.1462 20.0363 16.333 20.4541L15.9805 20.626H15.9795C14.7678 21.1873 13.4187 21.5 11.998 21.5C9.37497 21.4999 7.00089 20.4373 5.28027 18.7178H5.28125C3.67142 17.1069 2.63815 14.9242 2.5127 12.5H3.10156ZM16.3574 14.5156L12.8213 16.5576V12.4736L16.3574 10.4316V14.5156ZM8.19043 10.75V12.6689H8.36133C8.42699 12.7545 8.5095 12.8257 8.60352 12.8799V12.8809L9.68945 13.5068V13.5059C9.81488 13.5846 9.96369 13.6338 10.126 13.6338C10.5802 13.6338 10.9482 13.2658 10.9482 12.8115V12.3418L11.1758 12.4727V16.5566L7.64062 14.5166V14.1777H7.63965V10.4316L8.19043 10.75ZM11.998 2.5C14.4584 2.5 16.6989 3.4337 18.3867 4.96777L18.7168 5.28223C20.3261 6.89152 21.3575 9.07593 21.4824 11.5H20.8945C20.7781 9.38479 19.9257 7.46578 18.5869 5.99707L18.3008 5.69727C16.6887 4.08484 14.4595 3.08789 11.998 3.08789C10.8297 3.08789 9.71444 3.31138 8.69336 3.71875L8.26172 3.9043H8.26074C7.49173 4.26025 6.78278 4.72049 6.15234 5.26758L5.88672 5.50781L5.88281 5.51074C5.75789 5.63074 5.67769 5.787 5.65723 5.96289L5.65234 6.03906C5.64889 6.24374 5.72538 6.43428 5.87012 6.5791L6.61621 7.3252H3.65332V4.3623L4.4043 5.1123C4.65633 5.3652 5.04259 5.39683 5.33008 5.21582L5.44727 5.125C6.10588 4.49692 6.8518 3.96343 7.66504 3.5459L8.01758 3.37402H8.01855C9.2302 2.8127 10.5788 2.50006 11.998 2.5ZM15.5361 9.00977L11.998 11.0518L11.7656 10.918L15.3037 8.875L15.5361 9.00977ZM12.5518 7.28613L9.01465 9.32812L8.46191 9.00879L11.998 6.9668L12.5518 7.28613Z" stroke="#141414"/>
</svg>
