<svg width="24" height="24" viewBox="0 0 24 24" fill="none" xmlns="http://www.w3.org/2000/svg">
<path fill-rule="evenodd" clip-rule="evenodd" d="M15.3041 8.29799L16.5362 9.00996L11.9985 11.629L10.7663 10.9182L15.1435 8.39055L15.3041 8.29799ZM14.0344 7.75122L9.47122 10.3859C9.46575 10.389 9.46106 10.3925 9.45442 10.396L9.33609 10.4648V11.9836L9.80318 12.2539V10.9166H9.80436C9.80436 10.8061 9.86177 10.6975 9.96487 10.6378L14.66 7.92775L14.1949 7.65866L14.0344 7.75122ZM16.7475 14.8686C16.8174 14.8287 16.8573 14.7588 16.8573 14.678V9.56571L12.3214 12.1851V17.4239L16.7475 14.8686ZM7.14042 14.678C7.14042 14.7588 7.18026 14.8287 7.25017 14.8686L11.6763 17.4236V12.1847L10.4484 11.4763V12.8116C10.4484 12.9897 10.3043 13.1338 10.1262 13.1338C10.0563 13.1338 9.99221 13.1115 9.9391 13.074L8.85298 12.4476C8.80391 12.4194 8.76312 12.3788 8.73474 12.3298C8.70635 12.2809 8.69137 12.2253 8.69129 12.1687H8.69012V10.4612L7.14003 9.56688V14.678H7.14042ZM11.8887 6.45343L7.46263 9.00957L9.01584 9.90627L9.13222 9.8387C9.13769 9.83558 9.14433 9.83206 9.1498 9.82855L13.5525 7.28686L12.1078 6.45343C12.0383 6.41359 11.9586 6.41359 11.8887 6.45343ZM19.0705 4.92912C17.2603 3.11892 14.7608 2 11.9985 2C10.505 2 9.08458 2.32884 7.80826 2.92013C6.80611 3.38254 5.89418 4.0082 5.10254 4.76313C5.00607 4.85491 4.8522 4.85374 4.75808 4.75884L3.57354 3.57547C3.50168 3.50361 3.39975 3.48369 3.30563 3.52236C3.2115 3.56102 3.15292 3.64851 3.15292 3.75044V7.57977C3.15292 7.7149 3.26345 7.82543 3.39975 7.82543H7.22908C7.33101 7.82543 7.41732 7.76801 7.45599 7.67389C7.49582 7.57977 7.47473 7.47667 7.40287 7.4048L6.22381 6.22574C6.17499 6.17692 6.15077 6.11716 6.15194 6.04765C6.15312 5.97774 6.17967 5.91916 6.22927 5.87151C6.88461 5.25483 7.64072 4.74243 8.47102 4.35813C9.54152 3.86331 10.7362 3.58758 11.9981 3.58758C14.3218 3.58758 16.4253 4.52841 17.9473 6.05077C19.4232 7.52666 20.3531 9.54814 20.4081 11.7864C20.4113 11.9047 20.5089 12 20.6272 12H21.7762C21.8383 12 21.8903 11.9777 21.9332 11.9348C21.9766 11.8906 21.9973 11.8375 21.9953 11.7766C21.9375 9.10408 20.8307 6.68932 19.0705 4.92912ZM20.598 16.1746H16.7686C16.6667 16.1746 16.5792 16.232 16.5405 16.3261C16.5019 16.4202 16.5218 16.5233 16.5948 16.5952L17.7727 17.7743C17.8227 17.8231 17.8469 17.884 17.8458 17.9524C17.8446 18.0223 17.818 18.0808 17.7673 18.1285C17.1065 18.75 16.35 19.2611 15.5267 19.6419C14.4562 20.1367 13.2603 20.4136 11.9985 20.4136C9.67587 20.4136 7.57237 19.4716 6.05001 17.9492C4.57413 16.4733 3.64423 14.4519 3.58799 12.2136C3.58565 12.0953 3.4884 12 3.36889 12H2.21951C2.15858 12 2.10547 12.0223 2.06329 12.0664C2.01994 12.1097 1.99924 12.1629 2.00002 12.2246C2.0586 14.8971 3.16698 17.3103 4.92718 19.0717C6.73777 20.8811 9.23728 22 11.9985 22C13.4931 22 14.9135 21.6712 16.1898 21.0799C17.1916 20.6171 18.1039 19.9918 18.8955 19.2365C18.992 19.1447 19.1459 19.1459 19.24 19.2408L20.4234 20.4241C20.4952 20.496 20.5983 20.5171 20.6925 20.4773C20.7866 20.4386 20.8452 20.3511 20.8452 20.2492V16.421C20.8448 16.2855 20.7343 16.1746 20.598 16.1746Z" fill="#141414"/>
</svg>
