<svg width="24" height="24" viewBox="0 0 24 24" fill="none" xmlns="http://www.w3.org/2000/svg">
<path d="M17.5127 13.9074H13.132C13.4935 12.8228 13.6856 11.91 13.7173 11.1313C13.792 9.29491 12.9249 8.56784 12.1844 8.28128C12.1534 8.26926 12.1211 8.26059 12.0883 8.25542C11.5144 8.16487 11.3102 8.43483 11.1748 8.73999L11.157 8.77987C11.1372 8.82366 11.1243 8.87023 11.1187 8.91796C11.0028 9.91027 10.6913 10.8697 10.2019 11.7408C9.71263 12.6118 9.05532 13.377 8.26811 13.9922C8.18555 13.8609 8.07108 13.7528 7.93538 13.6777C7.79968 13.6027 7.64718 13.5634 7.49213 13.5633H4.25662C4.01337 13.5635 3.78017 13.6603 3.60817 13.8323C3.43617 14.0043 3.33942 14.2375 3.33916 14.4807V21.0825C3.33942 21.3258 3.43617 21.559 3.60817 21.731C3.78017 21.903 4.01337 21.9997 4.25662 22H7.49213C7.68034 21.9998 7.86396 21.9418 8.01814 21.8338C8.17232 21.7259 8.28964 21.5732 8.35424 21.3964C8.71037 21.679 9.12481 21.879 9.56764 21.9819C9.60087 21.9896 9.63485 21.9937 9.66897 21.9941C10.0356 21.998 10.4728 22 10.9769 22C11.4798 22 12.0492 21.998 12.6811 21.9941H16.808C17.0493 21.9942 17.2863 21.9302 17.4947 21.8086C17.7031 21.687 17.8755 21.5122 17.9942 21.3022C18.1129 21.0921 18.1736 20.8543 18.1702 20.613C18.1669 20.3717 18.0994 20.1357 17.9749 19.9291C18.2503 19.7203 18.436 19.4147 18.4943 19.074C18.5525 18.7334 18.479 18.3834 18.2887 18.095C18.556 17.8684 18.7256 17.5473 18.762 17.1987C18.7985 16.8501 18.699 16.5009 18.4843 16.2239C18.6724 16.0325 18.7998 15.7898 18.8505 15.5262C18.9011 15.2627 18.8728 14.99 18.769 14.7425C18.6651 14.495 18.4905 14.2837 18.267 14.1352C18.0435 13.9866 17.7811 13.9074 17.5127 13.9075V13.9074ZM7.47209 21.0625H4.27677V14.5007H7.47209V21.0625ZM14.7708 16.6322H17.4069C17.5189 16.6333 17.626 16.6785 17.7048 16.7581C17.7836 16.8376 17.8278 16.9451 17.8278 17.0571C17.8278 17.1691 17.7836 17.2765 17.7048 17.3561C17.626 17.4357 17.5189 17.4809 17.4069 17.482H15.1466C15.0223 17.482 14.9031 17.5314 14.8152 17.6193C14.7273 17.7072 14.6779 17.8264 14.6779 17.9507C14.6779 18.0751 14.7273 18.1943 14.8152 18.2822C14.9031 18.3701 15.0223 18.4195 15.1466 18.4195H17.1514C17.2633 18.4206 17.3704 18.4658 17.4492 18.5454C17.528 18.6249 17.5722 18.7324 17.5722 18.8444C17.5722 18.9564 17.528 19.0638 17.4492 19.1434C17.3704 19.223 17.2633 19.2682 17.1514 19.2693H15.476C15.3517 19.2693 15.2325 19.3187 15.1446 19.4066C15.0567 19.4945 15.0073 19.6137 15.0073 19.738C15.0073 19.8624 15.0567 19.9816 15.1446 20.0695C15.2325 20.1574 15.3517 20.2068 15.476 20.2068H16.8081C16.9201 20.2079 17.0271 20.2531 17.1059 20.3327C17.1847 20.4122 17.2289 20.5197 17.2289 20.6317C17.2289 20.7437 17.1847 20.8512 17.1059 20.9307C17.0271 21.0103 16.9201 21.0555 16.8081 21.0566H12.6782C11.4462 21.0642 10.4556 21.0644 9.73291 21.0572C9.45578 20.9862 9.19578 20.8601 8.96844 20.6865C8.7411 20.5128 8.55107 20.2952 8.40971 20.0464V15.0508C9.38311 14.3854 10.2072 13.5244 10.8293 12.5228C11.4514 11.5212 11.8579 10.401 12.023 9.2335C12.3392 9.39858 12.8323 9.82394 12.7808 11.0932C12.7472 11.9189 12.5018 12.9396 12.0308 14.2135C12.0046 14.2844 11.9959 14.3606 12.0055 14.4355C12.0151 14.5105 12.0426 14.582 12.0858 14.644C12.129 14.706 12.1865 14.7567 12.2535 14.7916C12.3205 14.8266 12.3949 14.8449 12.4705 14.8449H17.5127C17.6247 14.846 17.7317 14.8912 17.8105 14.9708C17.8893 15.0503 17.9335 15.1578 17.9335 15.2698C17.9335 15.3818 17.8893 15.4892 17.8105 15.5688C17.7317 15.6484 17.6247 15.6936 17.5127 15.6947H14.7708C14.6465 15.6947 14.5273 15.7441 14.4394 15.832C14.3514 15.9199 14.3021 16.0391 14.3021 16.1634C14.3021 16.2878 14.3514 16.407 14.4394 16.4949C14.5273 16.5828 14.6465 16.6322 14.7708 16.6322ZM4.5247 15.2854C4.5247 15.1611 4.57409 15.0418 4.662 14.9539C4.7499 14.866 4.86913 14.8166 4.99345 14.8166H5.33744C5.46176 14.8166 5.58099 14.866 5.66889 14.9539C5.7568 15.0418 5.80619 15.1611 5.80619 15.2854C5.80619 15.4097 5.7568 15.5289 5.66889 15.6168C5.58099 15.7047 5.46176 15.7541 5.33744 15.7541H4.99349C4.86917 15.7541 4.74994 15.7047 4.66204 15.6168C4.57413 15.5289 4.52474 15.4097 4.52474 15.2854H4.5247ZM14.9177 4.29245C14.89 4.20701 14.8382 4.13135 14.7687 4.07447C14.6992 4.01759 14.6147 3.98189 14.5255 3.97162L12.8781 3.78209L12.1887 2.27389C12.1514 2.19218 12.0914 2.12293 12.0158 2.07437C11.9402 2.02582 11.8522 2 11.7624 2C11.6726 2 11.5846 2.02582 11.509 2.07437C11.4335 2.12293 11.3734 2.19218 11.3361 2.27389L10.6467 3.78209L8.99932 3.97162C8.91008 3.9819 8.82567 4.0176 8.75613 4.07448C8.6866 4.13135 8.63488 4.20701 8.60712 4.29245C8.57936 4.37788 8.57674 4.46949 8.59956 4.55638C8.62238 4.64326 8.66968 4.72176 8.73584 4.78252L9.95721 5.9042L9.62838 7.52956C9.61057 7.61761 9.61844 7.70892 9.65104 7.79263C9.68365 7.87634 9.73962 7.94891 9.8123 8.00171C9.88498 8.05452 9.9713 8.08533 10.061 8.09047C10.1507 8.09561 10.2399 8.07488 10.3182 8.03073L11.7624 7.21573L13.2066 8.03073C13.2848 8.07488 13.3741 8.09561 13.4638 8.09047C13.5535 8.08533 13.6398 8.05452 13.7125 8.00171C13.7851 7.94891 13.8411 7.87634 13.8737 7.79263C13.9063 7.70892 13.9142 7.61761 13.8964 7.52956L13.5676 5.9042L14.789 4.78252C14.8551 4.72176 14.9024 4.64326 14.9253 4.55638C14.9481 4.4695 14.9455 4.37788 14.9177 4.29245ZM12.7387 5.39264C12.6792 5.44724 12.6349 5.51626 12.6099 5.59302C12.585 5.66979 12.5803 5.75169 12.5963 5.83081L12.7742 6.71022L11.9929 6.26928C11.9226 6.22962 11.8433 6.20878 11.7626 6.20878C11.6818 6.20878 11.6025 6.22962 11.5322 6.26928L10.751 6.71022L10.9288 5.83081C10.9448 5.75169 10.9401 5.66979 10.9152 5.59302C10.8903 5.51626 10.8459 5.44724 10.7865 5.39264L10.1253 4.78573L11.0167 4.68319C11.0969 4.67397 11.1733 4.64419 11.2386 4.59674C11.3039 4.54929 11.3559 4.48579 11.3894 4.41237L11.7624 3.59635L12.1354 4.41237C12.1689 4.48578 12.2209 4.54929 12.2862 4.59673C12.3515 4.64418 12.4279 4.67396 12.5081 4.68319L13.3995 4.78573L12.7387 5.39264ZM20.5019 6.05026C20.4741 5.96482 20.4224 5.88916 20.3528 5.83228C20.2833 5.7754 20.1989 5.73971 20.1096 5.72944L18.8303 5.58221L18.2951 4.41092C18.2578 4.32922 18.1977 4.25996 18.1221 4.21141C18.0466 4.16285 17.9586 4.13703 17.8688 4.13703C17.7789 4.13703 17.691 4.16285 17.6154 4.21141C17.5398 4.25996 17.4798 4.32922 17.4424 4.41092L16.9069 5.58221L15.6275 5.72944C15.5383 5.73971 15.4539 5.77541 15.3843 5.83229C15.3148 5.88917 15.2631 5.96483 15.2353 6.05026C15.2076 6.1357 15.2049 6.22731 15.2278 6.31419C15.2506 6.40107 15.2979 6.47957 15.364 6.54034L16.3126 7.41143L16.0572 8.6737C16.0394 8.76175 16.0473 8.85306 16.0799 8.93677C16.1125 9.02048 16.1685 9.09305 16.2411 9.14586C16.3138 9.19866 16.4001 9.22947 16.4898 9.23461C16.5795 9.23975 16.6688 9.21902 16.747 9.17487L17.8686 8.54206L18.9902 9.17487C19.0684 9.21902 19.1577 9.23975 19.2474 9.23461C19.3371 9.22947 19.4234 9.19866 19.4961 9.14586C19.5687 9.09305 19.6247 9.02048 19.6573 8.93677C19.6899 8.85306 19.6978 8.76175 19.68 8.6737L19.4246 7.41143L20.3732 6.54034C20.4393 6.47957 20.4866 6.40107 20.5095 6.31418C20.5323 6.2273 20.5296 6.13569 20.5019 6.05026ZM18.5956 6.89987C18.5362 6.95447 18.4918 7.0235 18.4669 7.10027C18.4419 7.17704 18.4372 7.25895 18.4532 7.33807L18.5576 7.8544L18.0989 7.5955C18.0286 7.55582 17.9492 7.53498 17.8685 7.53498C17.7878 7.53498 17.7085 7.55582 17.6382 7.5955L17.1794 7.8544L17.2839 7.33807C17.2999 7.25895 17.2952 7.17704 17.2702 7.10027C17.2453 7.0235 17.2009 6.95447 17.1415 6.89987L16.7535 6.54354L17.2769 6.48335C17.3571 6.47412 17.4336 6.44435 17.4989 6.3969C17.5642 6.34945 17.6161 6.28594 17.6497 6.21253L17.8687 5.73342L18.0876 6.21253C18.1212 6.28594 18.1731 6.34945 18.2384 6.3969C18.3037 6.44435 18.3802 6.47412 18.4604 6.48335L18.9838 6.54354L18.5956 6.89987ZM8.28975 6.05026C8.26198 5.96482 8.21026 5.88916 8.14072 5.83228C8.07118 5.7754 7.98677 5.73971 7.89752 5.72944L6.61787 5.58221L6.08271 4.41092C6.04537 4.32922 5.98533 4.25996 5.90975 4.21141C5.83416 4.16285 5.74622 4.13703 5.65638 4.13703C5.56655 4.13703 5.4786 4.16285 5.40302 4.21141C5.32744 4.25996 5.2674 4.32922 5.23006 4.41092L4.69455 5.58221L3.41517 5.72944C3.32593 5.73971 3.24151 5.7754 3.17198 5.83228C3.10244 5.88915 3.05071 5.96481 3.02295 6.05025C2.99518 6.13568 2.99256 6.22729 3.01537 6.31418C3.03819 6.40107 3.0855 6.47957 3.15166 6.54034L4.10021 7.41143L3.84486 8.6737C3.82705 8.76175 3.83492 8.85306 3.86752 8.93677C3.90013 9.02048 3.9561 9.09305 4.02878 9.14586C4.10146 9.19866 4.18778 9.22947 4.27746 9.23461C4.36715 9.23975 4.45643 9.21902 4.53466 9.17487L5.65627 8.54206L6.77783 9.17487C6.85607 9.21902 6.94534 9.23975 7.03503 9.23461C7.12472 9.22947 7.21104 9.19866 7.28371 9.14586C7.35639 9.09305 7.41236 9.02048 7.44497 8.93677C7.47758 8.85306 7.48545 8.76175 7.46764 8.6737L7.21228 7.41143L8.1608 6.54034C8.227 6.4796 8.27435 6.40111 8.29721 6.31423C8.32007 6.22734 8.31748 6.13571 8.28975 6.05026ZM6.38349 6.89987C6.32404 6.95447 6.27969 7.0235 6.25475 7.10027C6.2298 7.17704 6.2251 7.25895 6.24111 7.33807L6.34556 7.8544L5.88681 7.5955C5.81649 7.55579 5.7371 7.53492 5.65634 7.53492C5.57559 7.53492 5.4962 7.55579 5.42588 7.5955L4.96713 7.8544L5.07154 7.33807C5.08755 7.25895 5.08285 7.17704 5.0579 7.10027C5.03296 7.0235 4.98861 6.95447 4.92916 6.89987L4.54119 6.54354L5.06463 6.48335C5.14482 6.47412 5.22128 6.44435 5.28658 6.3969C5.35189 6.34945 5.40384 6.28594 5.4374 6.21253L5.65638 5.73342L5.87513 6.21253C5.90869 6.28594 5.96064 6.34945 6.02595 6.3969C6.09126 6.44435 6.16771 6.47412 6.24791 6.48335L6.77135 6.54354L6.38349 6.89987Z" fill="#141414"/>
</svg>
