<svg width="24" height="24" viewBox="0 0 24 24" fill="none" xmlns="http://www.w3.org/2000/svg">
<path fill-rule="evenodd" clip-rule="evenodd" d="M17.513 13.9069H13.1323C13.4938 12.8222 13.6859 11.9092 13.7176 11.1307C13.7923 9.29425 12.9252 8.56741 12.1846 8.28064C12.1536 8.26847 12.1214 8.25983 12.0885 8.25486C11.5147 8.1642 11.3104 8.43416 11.1751 8.73924L11.1573 8.77924C11.1375 8.82307 11.1245 8.86968 11.1189 8.91745C10.9358 10.4841 10.2668 11.9541 9.20581 13.1212V21.8733C9.32417 21.9167 9.44506 21.9527 9.56781 21.9813C9.60105 21.9892 9.63504 21.9934 9.66918 21.9939C10.0359 21.9978 10.473 21.9998 10.9772 21.9998C11.4801 21.9998 12.0495 21.9977 12.6814 21.9939H16.8084C17.0497 21.9939 17.2866 21.9298 17.4951 21.8082C17.7035 21.6866 17.8759 21.5118 17.9946 21.3017C18.1132 21.0916 18.174 20.8538 18.1706 20.6125C18.1672 20.3712 18.0997 20.1352 17.9752 19.9285C18.2506 19.7199 18.4363 19.4142 18.4946 19.0736C18.5529 18.733 18.4794 18.383 18.289 18.0946C18.5563 17.868 18.7258 17.5469 18.7623 17.1983C18.7987 16.8498 18.6993 16.5006 18.4847 16.2235C18.6729 16.0321 18.8003 15.7894 18.851 15.5258C18.9017 15.2622 18.8733 14.9895 18.7695 14.742C18.6657 14.4945 18.491 14.2832 18.2675 14.1346C18.0439 13.9861 17.7814 13.9069 17.513 13.9071V13.9069ZM8.28994 6.04979C8.2622 5.96431 8.21049 5.88859 8.14097 5.83165C8.07144 5.7747 7.98702 5.73893 7.89775 5.72857L6.61804 5.58134L6.08287 4.41054C6.04568 4.32866 5.9857 4.25921 5.91009 4.21051C5.83448 4.1618 5.74644 4.1359 5.6565 4.1359C5.56656 4.1359 5.47853 4.1618 5.40292 4.21051C5.3273 4.25921 5.26732 4.32866 5.23013 4.41054L4.69496 5.58134L3.41529 5.72857C3.32602 5.73882 3.24157 5.77452 3.17201 5.8314C3.10244 5.88829 3.0507 5.96398 3.02293 6.04944C2.99517 6.13491 2.99256 6.22655 3.01541 6.31346C3.03826 6.40037 3.0856 6.47888 3.15181 6.53964L4.10034 7.41075L3.84499 8.67315C3.82735 8.76117 3.83533 8.8524 3.86798 8.93602C3.90063 9.01964 3.95659 9.09214 4.02921 9.14492C4.10182 9.19769 4.18806 9.22853 4.27767 9.23377C4.36729 9.23901 4.45653 9.21844 4.5348 9.17449L5.65638 8.54123L6.7782 9.17449C6.85645 9.21865 6.94574 9.23939 7.03544 9.23424C7.12514 9.22909 7.21147 9.19827 7.28416 9.14545C7.35684 9.09263 7.41281 9.02004 7.44541 8.93631C7.47801 8.85258 7.48585 8.76125 7.46801 8.67319L7.21266 7.41079L8.16119 6.53968C8.22733 6.47895 8.27463 6.40049 8.29745 6.31365C8.32027 6.2268 8.31765 6.13523 8.2899 6.04983L8.28994 6.04979ZM20.5024 6.04979C20.5302 6.13518 20.5328 6.22675 20.51 6.3136C20.4872 6.40044 20.4399 6.4789 20.3738 6.53964L19.4252 7.41075L19.6805 8.67315C19.6983 8.76121 19.6905 8.85253 19.6579 8.93625C19.6253 9.01997 19.5693 9.09257 19.4967 9.14538C19.424 9.1982 19.3377 9.22902 19.248 9.23417C19.1583 9.23933 19.069 9.2186 18.9907 9.17445L17.8692 8.54119L16.7475 9.17445C16.6692 9.21861 16.58 9.23935 16.4903 9.2342C16.4006 9.22905 16.3142 9.19824 16.2415 9.14542C16.1689 9.0926 16.1129 9.02 16.0803 8.93627C16.0477 8.85254 16.0398 8.76121 16.0577 8.67315L16.313 7.41075L15.3645 6.53964C15.2983 6.47888 15.2509 6.40037 15.2281 6.31346C15.2052 6.22655 15.2079 6.13491 15.2356 6.04944C15.2634 5.96398 15.3151 5.88829 15.3847 5.8314C15.4543 5.77452 15.5387 5.73882 15.628 5.72857L16.9073 5.58134L17.4427 4.41054C17.4798 4.32866 17.5398 4.25922 17.6154 4.21052C17.691 4.16182 17.779 4.13592 17.869 4.13592C17.9589 4.13592 18.0469 4.16182 18.1225 4.21052C18.1981 4.25922 18.2581 4.32866 18.2953 4.41054L18.8307 5.58134L20.11 5.72857C20.1993 5.73891 20.2838 5.77468 20.3533 5.83162C20.4228 5.88857 20.4745 5.9643 20.5022 6.04979H20.5024ZM14.9181 4.29269C14.8903 4.2071 14.8386 4.13126 14.769 4.07411C14.6995 4.01697 14.6151 3.9809 14.5258 3.97019L12.8783 3.78221L12.189 2.27274C12.1514 2.19131 12.0913 2.12235 12.0157 2.07402C11.9402 2.02568 11.8524 2 11.7627 2C11.673 2 11.5852 2.02568 11.5096 2.07402C11.4341 2.12235 11.3739 2.19131 11.3363 2.27274L10.6469 3.7821L8.99956 3.97007C8.91035 3.98054 8.826 4.01638 8.75655 4.07334C8.68709 4.1303 8.63542 4.20599 8.60769 4.29143C8.57995 4.37686 8.5773 4.46847 8.60006 4.55536C8.62282 4.64226 8.67003 4.72081 8.73608 4.78168L9.95743 5.90365L9.62859 7.52868C9.61081 7.61672 9.6187 7.70802 9.65132 7.79171C9.68394 7.8754 9.73992 7.94795 9.81259 8.00074C9.88526 8.05353 9.97157 8.08433 10.0612 8.08947C10.1509 8.09461 10.2402 8.07388 10.3184 8.02974L11.7627 7.21508L13.2069 8.02982C13.2851 8.07394 13.3744 8.09466 13.464 8.08952C13.5537 8.08437 13.64 8.05357 13.7127 8.00079C13.7853 7.948 13.8413 7.87545 13.8739 7.79177C13.9066 7.70809 13.9144 7.6168 13.8967 7.52876L13.5679 5.90373L14.7893 4.78168C14.8554 4.72109 14.9027 4.64277 14.9255 4.55605C14.9484 4.46934 14.9458 4.37788 14.9182 4.29257L14.9181 4.29269ZM8.2683 13.9917C8.18575 13.8604 8.07127 13.7522 7.93557 13.6772C7.79986 13.6022 7.64736 13.5629 7.49231 13.5628H4.25679C4.01357 13.563 3.78036 13.6597 3.60835 13.8317C3.43633 14.0036 3.33957 14.2368 3.33928 14.48V21.082C3.33948 21.3253 3.4362 21.5586 3.60821 21.7307C3.78022 21.9028 4.01347 21.9997 4.25679 22H7.49231C7.64732 21.9999 7.79979 21.9606 7.93548 21.8856C8.07118 21.8107 8.18568 21.7026 8.2683 21.5714V13.9917ZM4.52488 15.2847C4.52488 15.1603 4.57427 15.0411 4.66218 14.9532C4.75009 14.8653 4.86932 14.8159 4.99364 14.8159H5.33767C5.46199 14.8159 5.58122 14.8653 5.66913 14.9532C5.75704 15.0411 5.80643 15.1603 5.80643 15.2847C5.80643 15.409 5.75704 15.5282 5.66913 15.6161C5.58122 15.704 5.46199 15.7534 5.33767 15.7534H4.99368C4.93212 15.7534 4.87116 15.7413 4.81428 15.7177C4.7574 15.6942 4.70572 15.6597 4.66219 15.6161C4.61866 15.5726 4.58413 15.5209 4.56057 15.4641C4.53701 15.4072 4.52488 15.3462 4.52488 15.2847Z" fill="#141414"/>
</svg>
