<svg width="24" height="24" viewBox="0 0 24 24" fill="none" xmlns="http://www.w3.org/2000/svg">
<path fill-rule="evenodd" clip-rule="evenodd" d="M11.5 20.263H2.95C2.89696 20.263 2.84609 20.2419 2.80858 20.2044C2.77107 20.1669 2.75 20.116 2.75 20.063V18.612C2.75 17.782 3.343 17.05 4.257 16.428C5.889 15.314 8.53 14.612 11.5 14.612C11.6989 14.612 11.8897 14.533 12.0303 14.3923C12.171 14.2517 12.25 14.0609 12.25 13.862C12.25 13.6631 12.171 13.4723 12.0303 13.3317C11.8897 13.191 11.6989 13.112 11.5 13.112C8.178 13.112 5.237 13.943 3.411 15.188C2.018 16.138 1.25 17.345 1.25 18.612V20.063C1.25 20.5139 1.42911 20.9463 1.74792 21.2651C2.06673 21.5839 2.49913 21.763 2.95 21.763H11.5C11.6989 21.763 11.8897 21.684 12.0303 21.5433C12.171 21.4027 12.25 21.2119 12.25 21.013C12.25 20.8141 12.171 20.6233 12.0303 20.4827C11.8897 20.342 11.6989 20.263 11.5 20.263ZM11.5 1.25C8.464 1.25 6 3.714 6 6.75C6 9.786 8.464 12.25 11.5 12.25C14.536 12.25 17 9.786 17 6.75C17 3.714 14.536 1.25 11.5 1.25ZM11.5 2.75C13.708 2.75 15.5 4.542 15.5 6.75C15.5 8.958 13.708 10.75 11.5 10.75C9.292 10.75 7.5 8.958 7.5 6.75C7.5 4.542 9.292 2.75 11.5 2.75ZM17.5 13.938C16.5731 13.9649 15.6931 14.352 15.047 15.0172C14.4008 15.6824 14.0394 16.5732 14.0394 17.5005C14.0394 18.4278 14.4008 19.3186 15.047 19.9838C15.6931 20.649 16.5731 21.0361 17.5 21.063C19.466 21.063 21.063 19.466 21.063 17.5C21.063 15.534 19.466 13.938 17.5 13.938ZM17.5 15.438C18.638 15.438 19.563 16.362 19.563 17.5C19.563 18.638 18.638 19.563 17.5 19.563C16.362 19.563 15.437 18.638 15.437 17.5C15.437 16.362 16.362 15.438 17.5 15.438Z" fill="black"/>
<path fill-rule="evenodd" clip-rule="evenodd" d="M18.25 14.687V13C18.25 12.8011 18.171 12.6103 18.0303 12.4697C17.8897 12.329 17.6989 12.25 17.5 12.25C17.3011 12.25 17.1103 12.329 16.9697 12.4697C16.829 12.6103 16.75 12.8011 16.75 13V14.688C16.7501 14.8869 16.8293 15.0776 16.97 15.2182C17.1108 15.3587 17.3016 15.4376 17.5005 15.4375C17.6994 15.4374 17.8901 15.3582 18.0307 15.2175C18.1712 15.0767 18.2501 14.8859 18.25 14.687ZM20.019 16.042L21.212 14.848C21.3526 14.7074 21.4315 14.5168 21.4315 14.318C21.4315 14.1192 21.3526 13.9286 21.212 13.788C21.0714 13.6474 20.8808 13.5685 20.682 13.5685C20.4832 13.5685 20.2926 13.6474 20.152 13.788L18.958 14.981C18.8177 15.1219 18.739 15.3127 18.739 15.5115C18.739 15.7103 18.8177 15.9011 18.958 16.042C19.0989 16.1823 19.2897 16.261 19.4885 16.261C19.6873 16.261 19.8781 16.1823 20.019 16.042ZM20.312 18.25H22C22.1989 18.25 22.3897 18.171 22.5303 18.0303C22.671 17.8897 22.75 17.6989 22.75 17.5C22.75 17.3011 22.671 17.1103 22.5303 16.9697C22.3897 16.829 22.1989 16.75 22 16.75H20.312C20.1131 16.75 19.9223 16.829 19.7817 16.9697C19.641 17.1103 19.562 17.3011 19.562 17.5C19.562 17.6989 19.641 17.8897 19.7817 18.0303C19.9223 18.171 20.1131 18.25 20.312 18.25ZM18.958 20.019L20.152 21.212C20.2216 21.2816 20.3042 21.3368 20.3952 21.3745C20.4861 21.4121 20.5836 21.4315 20.682 21.4315C20.7804 21.4315 20.8779 21.4121 20.9688 21.3745C21.0598 21.3368 21.1424 21.2816 21.212 21.212C21.2816 21.1424 21.3368 21.0598 21.3745 20.9688C21.4121 20.8779 21.4315 20.7804 21.4315 20.682C21.4315 20.5836 21.4121 20.4861 21.3745 20.3952C21.3368 20.3042 21.2816 20.2216 21.212 20.152L20.019 18.958C19.8781 18.8177 19.6873 18.739 19.4885 18.739C19.2897 18.739 19.0989 18.8177 18.958 18.958C18.8177 19.0989 18.739 19.2897 18.739 19.4885C18.739 19.6873 18.8177 19.8781 18.958 20.019ZM16.75 20.312V22C16.75 22.1989 16.829 22.3897 16.9697 22.5303C17.1103 22.671 17.3011 22.75 17.5 22.75C17.6989 22.75 17.8897 22.671 18.0303 22.5303C18.171 22.3897 18.25 22.1989 18.25 22V20.312C18.25 20.1131 18.171 19.9223 18.0303 19.7817C17.8897 19.641 17.6989 19.562 17.5 19.562C17.3011 19.562 17.1103 19.641 16.9697 19.7817C16.829 19.9223 16.75 20.1131 16.75 20.312ZM14.981 18.958L13.788 20.152C13.7184 20.2216 13.6632 20.3042 13.6255 20.3952C13.5879 20.4861 13.5685 20.5836 13.5685 20.682C13.5685 20.7804 13.5879 20.8779 13.6255 20.9688C13.6632 21.0598 13.7184 21.1424 13.788 21.212C13.8576 21.2816 13.9402 21.3368 14.0312 21.3745C14.1221 21.4121 14.2196 21.4315 14.318 21.4315C14.4164 21.4315 14.5139 21.4121 14.6048 21.3745C14.6958 21.3368 14.7784 21.2816 14.848 21.212L16.042 20.019C16.1823 19.8781 16.261 19.6873 16.261 19.4885C16.261 19.2897 16.1823 19.0989 16.042 18.958C15.9011 18.8177 15.7103 18.739 15.5115 18.739C15.3127 18.739 15.1219 18.8177 14.981 18.958ZM14.687 16.75H13C12.8011 16.75 12.6103 16.829 12.4697 16.9697C12.329 17.1103 12.25 17.3011 12.25 17.5C12.25 17.6989 12.329 17.8897 12.4697 18.0303C12.6103 18.171 12.8011 18.25 13 18.25H14.687C14.8859 18.25 15.0767 18.171 15.2173 18.0303C15.358 17.8897 15.437 17.6989 15.437 17.5C15.437 17.3011 15.358 17.1103 15.2173 16.9697C15.0767 16.829 14.8859 16.75 14.687 16.75ZM16.042 14.981L14.848 13.788C14.7784 13.7184 14.6958 13.6632 14.6048 13.6255C14.5139 13.5879 14.4164 13.5685 14.318 13.5685C14.2196 13.5685 14.1221 13.5879 14.0312 13.6255C13.9402 13.6632 13.8576 13.7184 13.788 13.788C13.7184 13.8576 13.6632 13.9402 13.6255 14.0312C13.5879 14.1221 13.5685 14.2196 13.5685 14.318C13.5685 14.4164 13.5879 14.5139 13.6255 14.6048C13.6632 14.6958 13.7184 14.7784 13.788 14.848L14.981 16.042C15.1219 16.1823 15.3127 16.261 15.5115 16.261C15.7103 16.261 15.9011 16.1823 16.042 16.042C16.1823 15.9011 16.261 15.7103 16.261 15.5115C16.261 15.3127 16.1823 15.1219 16.042 14.981Z" fill="black"/>
</svg>
