<svg width="24" height="24" viewBox="0 0 24 24" fill="none" xmlns="http://www.w3.org/2000/svg">
<path d="M19.4422 12.2865C19.4048 12.3776 19.3497 12.4604 19.2803 12.5303L16.2803 15.5303C16.2108 15.6001 16.1281 15.6556 16.0371 15.6934C15.9461 15.7313 15.8486 15.7508 15.75 15.7508C15.6514 15.7508 15.5539 15.7313 15.4629 15.6934C15.3719 15.6556 15.2892 15.6001 15.2197 15.5303C15.0791 15.3896 15.0002 15.1989 15.0002 15C15.0002 14.8011 15.0791 14.6104 15.2197 14.4697L16.9395 12.75H7.0605L8.78025 14.4697C8.85188 14.5389 8.90902 14.6217 8.94833 14.7132C8.98763 14.8047 9.00832 14.9031 9.00919 15.0027C9.01005 15.1023 8.99108 15.201 8.95337 15.2932C8.91566 15.3854 8.85997 15.4691 8.78955 15.5395C8.71913 15.61 8.63539 15.6657 8.54322 15.7034C8.45104 15.7411 8.35228 15.7601 8.2527 15.7592C8.15311 15.7583 8.0547 15.7376 7.9632 15.6983C7.87169 15.659 7.78894 15.6019 7.71975 15.5303L4.71975 12.5303C4.61493 12.4253 4.54359 12.2916 4.51475 12.1461C4.48591 12.0006 4.50088 11.8498 4.55775 11.7127C4.59531 11.6219 4.65035 11.5394 4.71975 11.4698L7.71975 8.46975C7.78894 8.39812 7.87169 8.34098 7.9632 8.30167C8.0547 8.26237 8.15311 8.24168 8.2527 8.24081C8.35228 8.23995 8.45104 8.25892 8.54322 8.29663C8.63539 8.33434 8.71913 8.39003 8.78955 8.46045C8.85997 8.53087 8.91566 8.61461 8.95337 8.70678C8.99108 8.79896 9.01005 8.89772 9.00919 8.9973C9.00832 9.09689 8.98763 9.1953 8.94833 9.2868C8.90902 9.37831 8.85188 9.46106 8.78025 9.53025L7.0605 11.25H16.9395L15.2197 9.53025C15.1481 9.46106 15.091 9.37831 15.0517 9.2868C15.0124 9.1953 14.9917 9.09689 14.9908 8.9973C14.9899 8.89772 15.0089 8.79896 15.0466 8.70678C15.0843 8.61461 15.14 8.53087 15.2105 8.46045C15.2809 8.39003 15.3646 8.33434 15.4568 8.29663C15.549 8.25892 15.6477 8.23995 15.7473 8.24081C15.8469 8.24168 15.9453 8.26237 16.0368 8.30167C16.1283 8.34098 16.2111 8.39812 16.2803 8.46975L19.2803 11.4698C19.3851 11.5747 19.4564 11.7084 19.4853 11.8539C19.5141 11.9994 19.4991 12.1495 19.4422 12.2865ZM21.75 6.75C21.5511 6.75 21.3603 6.82902 21.2197 6.96967C21.079 7.11032 21 7.30109 21 7.5V16.5C21 16.6989 21.079 16.8897 21.2197 17.0303C21.3603 17.171 21.5511 17.25 21.75 17.25C21.9489 17.25 22.1397 17.171 22.2803 17.0303C22.421 16.8897 22.5 16.6989 22.5 16.5V7.5C22.5 7.30109 22.421 7.11032 22.2803 6.96967C22.1397 6.82902 21.9489 6.75 21.75 6.75ZM2.25 6.75C2.05109 6.75 1.86032 6.82902 1.71967 6.96967C1.57902 7.11032 1.5 7.30109 1.5 7.5V16.5C1.5 16.6989 1.57902 16.8897 1.71967 17.0303C1.86032 17.171 2.05109 17.25 2.25 17.25C2.44891 17.25 2.63968 17.171 2.78033 17.0303C2.92098 16.8897 3 16.6989 3 16.5V7.5C3 7.30109 2.92098 7.11032 2.78033 6.96967C2.63968 6.82902 2.44891 6.75 2.25 6.75Z" fill="#141414"/>
</svg>
