<svg width="24" height="24" viewBox="0 0 24 24" fill="none" xmlns="http://www.w3.org/2000/svg">
<path d="M15.1221 10.9265C15.702 11.2803 16.3369 11.5351 17.001 11.6785L17.3369 11.741C17.9749 11.8415 18.6227 11.8365 19.2568 11.7332V18.2859L19.25 18.3376L19.2275 18.3865C19.2179 18.4013 19.2066 18.4151 19.1934 18.4265L19.1484 18.4548L19.1445 18.4568L11.3818 22.0583L11.4199 12.6355L15.1221 10.9265ZM9.43262 12.6345L9.39648 22.0574L1.71484 18.4578L1.70898 18.4548L1.66406 18.4265L1.62988 18.3865C1.61063 18.3566 1.59966 18.3214 1.59961 18.2859V9.01733L9.43262 12.6345ZM10.4277 3.95679C10.4408 3.95679 10.4541 3.9589 10.4668 3.96167L10.5039 3.97339L10.5049 3.97437L12.2646 4.77319C12.2152 5.07813 12.1855 5.39237 12.1855 5.7146L12.1934 6.02319C12.2248 6.64049 12.3504 7.24936 12.5654 7.82886L12.6797 8.11597C12.8917 8.60899 13.1693 9.06932 13.501 9.48804L10.4277 10.907L2.83203 7.40015C2.89104 7.37323 2.95238 7.34652 3.01465 7.31812C3.832 6.94533 4.91983 6.44926 6.00684 5.95386C7.09382 5.45846 8.18059 4.96366 8.99512 4.59253C9.40205 4.40711 9.74107 4.25247 9.97852 4.14429C10.0973 4.09018 10.1913 4.04729 10.2549 4.01831C10.2865 4.0039 10.3108 3.99257 10.3271 3.98511C10.3352 3.98145 10.3415 3.97919 10.3457 3.97729C10.3478 3.97634 10.3495 3.97484 10.3506 3.97437H10.3516L10.3525 3.97339C10.3643 3.96799 10.3771 3.96442 10.3896 3.96167L10.4277 3.95679Z" stroke="#141414" stroke-width="1.2"/>
<path d="M18.2853 1.4502C19.3454 1.4502 20.3654 1.84462 21.1476 2.55273L21.3009 2.69922C22.1005 3.49882 22.5498 4.58309 22.5499 5.71387C22.5499 6.77419 22.1548 7.79392 21.4464 8.57617L21.3009 8.72949C20.5012 9.5292 19.4163 9.97852 18.2853 9.97852C17.7955 9.97847 17.3099 9.89407 16.8497 9.72949L16.6535 9.6543C16.2007 9.46674 15.7843 9.20241 15.422 8.87402L15.2706 8.72949C14.9242 8.38303 14.6399 7.98005 14.4308 7.53809L14.3458 7.3457C14.1317 6.82847 14.0216 6.2737 14.0216 5.71387C14.0217 5.22407 14.1061 4.73853 14.2706 4.27832L14.3458 4.08203C14.5601 3.56477 14.8747 3.09513 15.2706 2.69922C15.6171 2.35273 16.02 2.06848 16.4621 1.85938L16.6535 1.77441C17.1062 1.58687 17.5879 1.47909 18.0763 1.45508L18.2853 1.4502ZM19.8458 2.89941C19.7617 2.90085 19.6785 2.91539 19.5988 2.94141L19.5206 2.9707C19.4437 3.00458 19.3721 3.04969 19.3087 3.10449L19.2482 3.16309C19.1904 3.22413 19.1418 3.29312 19.1046 3.36816L19.0744 3.43652L17.9767 6.17773L17.3107 5.51074L17.2492 5.45508C17.2064 5.42001 17.1602 5.38933 17.1115 5.36328L17.0372 5.32812L16.9591 5.2998C16.9063 5.28378 16.852 5.27299 16.797 5.26758L16.714 5.26367C16.6312 5.2637 16.5489 5.27589 16.4699 5.2998L16.3917 5.32812C16.3151 5.35986 16.2437 5.4027 16.1798 5.45508L16.1183 5.51074C16.0595 5.56954 16.0099 5.63688 15.9708 5.70996L15.9347 5.78418C15.9029 5.86093 15.8833 5.94204 15.8751 6.02441L15.8712 6.10742L15.8751 6.18945C15.8805 6.24443 15.8914 6.2987 15.9074 6.35156L15.9347 6.42969C15.9665 6.50638 16.0102 6.57765 16.0626 6.6416L16.1183 6.70312L17.6896 8.27539V8.27441C17.7882 8.3731 17.9095 8.44621 18.0431 8.48633C18.1433 8.5164 18.248 8.5277 18.3517 8.51953L18.4552 8.50488C18.5576 8.48384 18.655 8.444 18.7423 8.3877L18.8263 8.3252C18.9332 8.23576 19.0168 8.12157 19.0685 7.99219L20.6398 4.06348L20.6388 4.0625C20.6694 3.98798 20.69 3.90995 20.6984 3.83008L20.7033 3.74609C20.7036 3.662 20.6914 3.57823 20.6671 3.49805L20.6388 3.41895L20.6027 3.34277C20.5762 3.29354 20.5446 3.24713 20.5089 3.2041L20.4523 3.14258L20.3898 3.08691C20.3463 3.05182 20.2996 3.02095 20.2501 2.99512L20.174 2.95996L20.0949 2.93262C20.041 2.91701 19.9857 2.90698 19.9298 2.90234L19.8458 2.89941Z" stroke="#141414" stroke-width="0.9"/>
</svg>
