<svg width="24" height="24" viewBox="0 0 24 24" fill="none" xmlns="http://www.w3.org/2000/svg">
<path d="M1.5 18.0001C1.50004 18.144 1.5415 18.2849 1.61943 18.4059C1.69736 18.5269 1.80847 18.623 1.9395 18.6826L10.0845 22.5001L10.1242 12.2401L1.5 8.25832V18.0001ZM15.0278 10.3231L10.875 12.2408L10.8345 22.5001L19.0605 18.6826C19.1915 18.623 19.3026 18.5269 19.3806 18.4059C19.4585 18.2849 19.5 18.144 19.5 18.0001V11.0288C18.7495 11.2548 17.9577 11.3087 17.1834 11.1867C16.4092 11.0646 15.6724 10.7697 15.0278 10.3238V10.3231ZM12.75 6.00007C12.75 5.57557 12.8062 5.16382 12.9022 4.76857L10.8097 3.81757C10.7124 3.77304 10.6067 3.75 10.4996 3.75C10.3926 3.75 10.2868 3.77304 10.1895 3.81757C10.1895 3.81757 1.899 7.59457 1.87725 7.60732L10.5 11.5876L14.382 9.79582C13.8665 9.30711 13.4559 8.71851 13.1753 8.06592C12.8947 7.41333 12.75 6.71042 12.75 6.00007Z" fill="#141414"/>
<path d="M18 1.5C17.4091 1.5 16.8239 1.6164 16.2779 1.84254C15.732 2.06869 15.2359 2.40016 14.818 2.81802C14.4002 3.23588 14.0687 3.73196 13.8425 4.27792C13.6164 4.82389 13.5 5.40905 13.5 6C13.5 6.59095 13.6164 7.17611 13.8425 7.72208C14.0687 8.26804 14.4002 8.76412 14.818 9.18198C15.2359 9.59984 15.732 9.93131 16.2779 10.1575C16.8239 10.3836 17.4091 10.5 18 10.5C19.1935 10.5 20.3381 10.0259 21.182 9.18198C22.0259 8.33807 22.5 7.19347 22.5 6C22.5 4.80653 22.0259 3.66193 21.182 2.81802C20.3381 1.97411 19.1935 1.5 18 1.5ZM19.848 4.2645L18.348 8.0145C18.325 8.07215 18.288 8.12319 18.2404 8.16303C18.1928 8.20287 18.136 8.23026 18.0752 8.24275C18.0144 8.25524 17.9514 8.25243 17.8919 8.23459C17.8325 8.21674 17.7784 8.18441 17.7345 8.1405L16.2345 6.6405C16.1996 6.60563 16.172 6.56424 16.1531 6.51869C16.1342 6.47313 16.1245 6.42431 16.1245 6.375C16.1245 6.32569 16.1342 6.27687 16.1531 6.23131C16.172 6.18576 16.1996 6.14437 16.2345 6.1095C16.2694 6.07463 16.3108 6.04698 16.3563 6.02811C16.4019 6.00924 16.4507 5.99953 16.5 5.99953C16.5493 5.99953 16.5981 6.00924 16.6437 6.02811C16.6892 6.04698 16.7306 6.07463 16.7655 6.1095L17.8627 7.2075L19.152 3.9855C19.1696 3.93881 19.1963 3.89609 19.2307 3.85987C19.265 3.82364 19.3062 3.79463 19.3519 3.77453C19.3975 3.75443 19.4468 3.74365 19.4967 3.74282C19.5466 3.74199 19.5961 3.75112 19.6424 3.76969C19.6887 3.78826 19.7309 3.81588 19.7664 3.85095C19.8019 3.88601 19.8301 3.92781 19.8492 3.97389C19.8683 4.01998 19.8781 4.06942 19.8779 4.11932C19.8777 4.16922 19.8675 4.21858 19.848 4.2645Z" fill="#141414"/>
</svg>
