<svg width="24" height="24" viewBox="0 0 24 24" fill="none" xmlns="http://www.w3.org/2000/svg">
<path d="M10.5807 11.2866H4.88732C3.94492 11.2866 3.04111 10.9122 2.37473 10.2458C1.70835 9.57947 1.33398 8.67566 1.33398 7.73326V4.88659C1.33398 3.94419 1.70835 3.04038 2.37473 2.37401C3.04111 1.70763 3.94492 1.33326 4.88732 1.33326H7.73398C8.67639 1.33326 9.58019 1.70763 10.2466 2.37401C10.913 3.04038 11.2873 3.94419 11.2873 4.88659V10.5733C11.2873 10.7613 11.2131 10.9417 11.0807 11.0753C10.9484 11.2089 10.7687 11.2848 10.5807 11.2866ZM4.88732 2.75326C4.32152 2.75326 3.7789 2.97802 3.37882 3.3781C2.97875 3.77817 2.75398 4.3208 2.75398 4.88659V7.73326C2.75398 8.29905 2.97875 8.84168 3.37882 9.24175C3.7789 9.64183 4.32152 9.86659 4.88732 9.86659H9.86732V4.88659C9.86732 4.3208 9.64256 3.77817 9.24248 3.3781C8.8424 2.97802 8.29978 2.75326 7.73398 2.75326H4.88732ZM19.114 11.2866H13.4207C13.2315 11.2866 13.05 11.2114 12.9162 11.0777C12.7825 10.9439 12.7073 10.7624 12.7073 10.5733V4.88659C12.7073 4.4194 12.7994 3.95679 12.9784 3.52525C13.1574 3.0937 13.4198 2.70169 13.7504 2.37165C14.0811 2.0416 14.4736 1.78 14.9055 1.60182C15.3373 1.42364 15.8001 1.33238 16.2673 1.33326H19.114C20.0564 1.33326 20.9602 1.70763 21.6266 2.37401C22.293 3.04038 22.6673 3.94419 22.6673 4.88659V7.73326C22.6673 8.67566 22.293 9.57947 21.6266 10.2458C20.9602 10.9122 20.0564 11.2866 19.114 11.2866ZM14.134 9.86659H19.114C19.6798 9.86659 20.2224 9.64183 20.6225 9.24175C21.0226 8.84168 21.2473 8.29905 21.2473 7.73326V4.88659C21.2473 4.3208 21.0226 3.77817 20.6225 3.3781C20.2224 2.97802 19.6798 2.75326 19.114 2.75326H16.2673C15.7015 2.75326 15.1589 2.97802 14.7588 3.3781C14.3587 3.77817 14.134 4.3208 14.134 4.88659V9.86659ZM7.73398 22.6666H4.88732C3.94492 22.6666 3.04111 22.2922 2.37473 21.6258C1.70835 20.9595 1.33398 20.0557 1.33398 19.1133V16.2666C1.33398 15.3242 1.70835 14.4204 2.37473 13.754C3.04111 13.0876 3.94492 12.7133 4.88732 12.7133H10.574C10.7632 12.7133 10.9446 12.7884 11.0784 12.9222C11.2122 13.056 11.2873 13.2374 11.2873 13.4266V19.1133C11.2873 20.0557 10.913 20.9595 10.2466 21.6258C9.58019 22.2922 8.67639 22.6666 7.73398 22.6666ZM4.88732 14.1333C4.32152 14.1333 3.7789 14.358 3.37882 14.7581C2.97875 15.1582 2.75398 15.7008 2.75398 16.2666V19.1133C2.75398 19.6791 2.97875 20.2217 3.37882 20.6218C3.7789 21.0218 4.32152 21.2466 4.88732 21.2466H7.73398C8.29978 21.2466 8.8424 21.0218 9.24248 20.6218C9.64256 20.2217 9.86732 19.6791 9.86732 19.1133V14.1333H4.88732ZM19.114 22.6666H16.2673C15.3249 22.6666 14.4211 22.2922 13.7547 21.6258C13.0884 20.9595 12.714 20.0557 12.714 19.1133V13.4199C12.714 13.2307 12.7891 13.0493 12.9229 12.9155C13.0567 12.7817 13.2381 12.7066 13.4273 12.7066H19.114C19.5812 12.7066 20.0438 12.7987 20.4753 12.9777C20.9069 13.1567 21.2989 13.419 21.6289 13.7497C21.959 14.0804 22.2206 14.4729 22.3988 14.9047C22.5769 15.3366 22.6682 15.7994 22.6673 16.2666V19.1133C22.6673 20.0557 22.293 20.9595 21.6266 21.6258C20.9602 22.2922 20.0564 22.6666 19.114 22.6666ZM14.134 14.1333V19.1133C14.134 19.6791 14.3587 20.2217 14.7588 20.6218C15.1589 21.0218 15.7015 21.2466 16.2673 21.2466H19.114C19.6798 21.2466 20.2224 21.0218 20.6225 20.6218C21.0226 20.2217 21.2473 19.6791 21.2473 19.1133V16.2666C21.2473 15.7008 21.0226 15.1582 20.6225 14.7581C20.2224 14.358 19.6798 14.1333 19.114 14.1333H14.134Z" fill="#141414"/>
</svg>
