<svg width="24" height="24" viewBox="0 0 24 24" fill="none" xmlns="http://www.w3.org/2000/svg">
<path fill-rule="evenodd" clip-rule="evenodd" d="M11.2875 4.85626C11.2875 4.09873 10.9866 3.37223 10.4509 2.83658C9.91527 2.30093 9.18877 2.00001 8.43125 2.00001H4.85625C4.09873 2.00001 3.37223 2.30093 2.83658 2.83658C2.30093 3.37223 2 4.09873 2 4.85626V8.42501C2 9.18253 2.30093 9.90903 2.83658 10.4447C3.37223 10.9803 4.09873 11.2813 4.85625 11.2813H9.85625C10.2358 11.2813 10.5999 11.1305 10.8683 10.8621C11.1367 10.5936 11.2875 10.2296 11.2875 9.85001V4.85001V4.85626ZM12.7125 4.85626C12.7125 4.09873 13.0134 3.37223 13.5491 2.83658C14.0847 2.30093 14.8112 2.00001 15.5687 2.00001H19.1375C19.5131 1.99918 19.8852 2.07246 20.2325 2.21563C20.5797 2.3588 20.8953 2.56906 21.1612 2.83437C21.4271 3.09968 21.6381 3.41483 21.782 3.76177C21.9259 4.10872 22 4.48064 22 4.85626V8.42501C22 9.18253 21.6991 9.90903 21.1634 10.4447C20.6278 10.9803 19.9013 11.2813 19.1437 11.2813H14.1438C13.7642 11.2813 13.4001 11.1305 13.1317 10.8621C12.8633 10.5936 12.7125 10.2296 12.7125 9.85001V4.85001V4.85626ZM11.2875 19.1438C11.2875 19.9013 10.9866 20.6278 10.4509 21.1634C9.91527 21.6991 9.18877 22 8.43125 22H4.85625C4.09873 22 3.37223 21.6991 2.83658 21.1634C2.30093 20.6278 2 19.9013 2 19.1438V15.5688C2 14.8112 2.30093 14.0847 2.83658 13.5491C3.37223 13.0134 4.09873 12.7125 4.85625 12.7125H9.85625C10.2358 12.7125 10.5999 12.8633 10.8683 13.1317C11.1367 13.4001 11.2875 13.7642 11.2875 14.1438V19.1438ZM12.7125 19.1438C12.7125 19.9013 13.0134 20.6278 13.5491 21.1634C14.0847 21.6991 14.8112 22 15.5687 22H19.1375C19.5131 22.0008 19.8852 21.9276 20.2325 21.7844C20.5797 21.6412 20.8953 21.431 21.1612 21.1656C21.4271 20.9003 21.6381 20.5852 21.782 20.2382C21.9259 19.8913 22 19.5194 22 19.1438V15.5688C22 14.8112 21.6991 14.0847 21.1634 13.5491C20.6278 13.0134 19.9013 12.7125 19.1437 12.7125H14.1438C13.7642 12.7125 13.4001 12.8633 13.1317 13.1317C12.8633 13.4001 12.7125 13.7642 12.7125 14.1438V19.1438Z" fill="#141414"/>
</svg>
