<svg width="24" height="24" viewBox="0 0 24 24" fill="none" xmlns="http://www.w3.org/2000/svg">
<path d="M16.6511 2H3.6279C3.19676 2.00196 2.78383 2.1741 2.47896 2.47896C2.1741 2.78383 2.00196 3.19675 2 3.6279V20.372C2.00196 20.8031 2.1741 21.216 2.47896 21.5209C2.78383 21.8258 3.19676 21.9979 3.6279 21.9999H17.5813C17.6836 21.9999 17.786 21.9999 17.8883 21.9906C17.8992 21.9795 17.9118 21.9701 17.9255 21.9627C18.0954 21.4975 18.2079 21.0133 18.2604 20.5208C18.0383 20.5767 17.8102 20.6048 17.5813 20.6045C16.7795 20.6045 16.0105 20.286 15.4435 19.7191C14.8766 19.1521 14.5581 18.3831 14.5581 17.5813C14.5581 16.7795 14.8766 16.0105 15.4435 15.4435C16.0105 14.8766 16.7795 14.5581 17.5813 14.5581C17.8164 14.5572 18.0507 14.5854 18.279 14.6418V3.6279C18.277 3.19675 18.1049 2.78383 17.8 2.47896C17.4951 2.1741 17.0822 2.00196 16.6511 2ZM5.95346 5.72091H14.3255C14.5105 5.72091 14.688 5.79441 14.8188 5.92525C14.9497 6.05609 15.0232 6.23354 15.0232 6.41858C15.0232 6.60361 14.9497 6.78107 14.8188 6.9119C14.688 7.04274 14.5105 7.11625 14.3255 7.11625H5.95346C5.76843 7.11625 5.59098 7.04274 5.46014 6.9119C5.3293 6.78107 5.25579 6.60361 5.25579 6.41858C5.25579 6.23354 5.3293 6.05609 5.46014 5.92525C5.59098 5.79441 5.76843 5.72091 5.95346 5.72091ZM5.95346 9.44181H14.3255C14.5105 9.44181 14.688 9.51532 14.8188 9.64616C14.9497 9.777 15.0232 9.95445 15.0232 10.1395C15.0232 10.3245 14.9497 10.502 14.8188 10.6328C14.688 10.7637 14.5105 10.8372 14.3255 10.8372H5.95346C5.76843 10.8372 5.59098 10.7637 5.46014 10.6328C5.3293 10.502 5.25579 10.3245 5.25579 10.1395C5.25579 9.95445 5.3293 9.777 5.46014 9.64616C5.59098 9.51532 5.76843 9.44181 5.95346 9.44181ZM11.0697 18.279H5.95346C5.76843 18.279 5.59098 18.2055 5.46014 18.0746C5.3293 17.9438 5.25579 17.7663 5.25579 17.5813C5.25579 17.3963 5.3293 17.2188 5.46014 17.088C5.59098 16.9571 5.76843 16.8836 5.95346 16.8836H11.0697C11.2547 16.8836 11.4322 16.9571 11.563 17.088C11.6939 17.2188 11.7674 17.3963 11.7674 17.5813C11.7674 17.7663 11.6939 17.9438 11.563 18.0746C11.4322 18.2055 11.2547 18.279 11.0697 18.279ZM11.9999 14.5581H5.95346C5.76843 14.5581 5.59098 14.4846 5.46014 14.3537C5.3293 14.2229 5.25579 14.0454 5.25579 13.8604C5.25579 13.6754 5.3293 13.4979 5.46014 13.3671C5.59098 13.2362 5.76843 13.1627 5.95346 13.1627H11.9999C12.185 13.1627 12.3624 13.2362 12.4933 13.3671C12.6241 13.4979 12.6976 13.6754 12.6976 13.8604C12.6976 14.0454 12.6241 14.2229 12.4933 14.3537C12.3624 14.4846 12.185 14.5581 11.9999 14.5581Z" fill="#141414"/>
<path d="M18.2795 13.2187C17.7054 13.1344 17.1203 13.1641 16.5576 13.3059C15.9949 13.4478 15.4656 13.699 15 14.0454C14.5344 14.3918 14.1416 14.8265 13.844 15.3247C13.5465 15.8229 13.3499 16.3748 13.2656 16.9489C13.1813 17.5231 13.2109 18.1082 13.3528 18.6709C13.4946 19.2336 13.7459 19.7629 14.0923 20.2285C14.4387 20.694 14.8734 21.0868 15.3716 21.3844C15.8698 21.682 16.4217 21.8786 16.9958 21.9629C17.19 21.9891 17.3859 22.0016 17.5819 22.0001C17.6842 22.0001 17.7865 22.0001 17.8888 21.9908C18.9719 21.9164 19.9896 21.446 20.7479 20.6692C21.5062 19.8924 21.9521 18.8637 22.0004 17.7792C22.0487 16.6947 21.6961 15.6304 21.0098 14.7893C20.3235 13.9481 19.3517 13.3891 18.2795 13.2187ZM18.2609 20.521C18.0389 20.5769 17.8108 20.605 17.5819 20.6047C16.7801 20.6047 16.0111 20.2862 15.4441 19.7193C14.8771 19.1523 14.5586 18.3833 14.5586 17.5815C14.5586 16.7797 14.8771 16.0107 15.4441 15.4438C16.0111 14.8768 16.7801 14.5583 17.5819 14.5583C17.817 14.5575 18.0513 14.5856 18.2795 14.642C18.9431 14.7982 19.5343 15.1745 19.9567 15.7097C20.3791 16.2448 20.6078 16.9072 20.6057 17.5889C20.6035 18.2706 20.3706 18.9316 19.9448 19.464C19.519 19.9964 18.9255 20.369 18.2609 20.521Z" fill="#141414"/>
<path d="M17.1141 19.211C17.0224 19.2111 16.9317 19.193 16.8471 19.1579C16.7625 19.1228 16.6857 19.0713 16.621 19.0064L15.6908 18.0762C15.6223 18.0123 15.5673 17.9353 15.5291 17.8497C15.491 17.7641 15.4705 17.6717 15.4689 17.5781C15.4672 17.4844 15.4844 17.3913 15.5195 17.3045C15.5546 17.2176 15.6068 17.1387 15.6731 17.0724C15.7393 17.0062 15.8183 16.9539 15.9051 16.9189C15.992 16.8838 16.0851 16.8665 16.1787 16.8682C16.2724 16.8698 16.3648 16.8903 16.4504 16.9285C16.5359 16.9666 16.613 17.0216 16.6768 17.0901L17.1141 17.5273L18.4815 16.1599C18.6137 16.0367 18.7887 15.9696 18.9694 15.9728C19.1502 15.976 19.3226 16.0492 19.4504 16.177C19.5783 16.3048 19.6515 16.4773 19.6547 16.658C19.6579 16.8388 19.5908 17.0137 19.4675 17.1459L17.6071 19.0064C17.5424 19.0713 17.4656 19.1228 17.381 19.1579C17.2964 19.193 17.2057 19.2111 17.1141 19.211Z" fill="#141414"/>
</svg>
