<svg width="24" height="24" viewBox="0 0 24 24" fill="none" xmlns="http://www.w3.org/2000/svg">
<path d="M16.6511 22H3.6279C3.19631 21.9995 2.78253 21.8278 2.47735 21.5226C2.17216 21.2174 2.00049 20.8037 2 20.3721V3.6279C2.00049 3.19631 2.17216 2.78253 2.47735 2.47735C2.78253 2.17216 3.19631 2.00049 3.6279 2H16.6511C17.0827 2.00049 17.4965 2.17216 17.8017 2.47735C18.1069 2.78253 18.2786 3.19631 18.279 3.6279V13.8604C18.279 14.0455 18.2055 14.2229 18.0747 14.3538C17.9439 14.4846 17.7664 14.5581 17.5814 14.5581C17.3963 14.5581 17.2189 14.4846 17.088 14.3538C16.9572 14.2229 16.8837 14.0455 16.8837 13.8604V3.6279C16.883 3.56645 16.8582 3.50772 16.8148 3.46426C16.7713 3.42081 16.7126 3.39607 16.6511 3.39535H3.6279C3.56645 3.39607 3.50772 3.42081 3.46426 3.46426C3.42081 3.50772 3.39607 3.56645 3.39535 3.6279V20.3721C3.39607 20.4335 3.42081 20.4923 3.46426 20.5357C3.50772 20.5792 3.56645 20.6039 3.6279 20.6046H16.6511C16.8259 20.5353 17.0209 20.5369 17.1946 20.609C17.3682 20.681 17.507 20.818 17.5814 20.9907C17.6176 21.0738 17.6368 21.1633 17.638 21.254C17.6393 21.3447 17.6224 21.4347 17.5885 21.5188C17.5545 21.6028 17.5042 21.6793 17.4403 21.7437C17.3765 21.8082 17.3005 21.8592 17.2167 21.8939C17.0367 21.9652 16.8447 22.0012 16.6511 22Z" fill="#141414"/>
<path d="M14.3256 7.11629H5.95349C5.76845 7.11629 5.591 7.04279 5.46016 6.91195C5.32932 6.78111 5.25581 6.60366 5.25581 6.41862C5.25581 6.23359 5.32932 6.05613 5.46016 5.92529C5.591 5.79445 5.76845 5.72095 5.95349 5.72095H14.3256C14.5106 5.72095 14.6881 5.79445 14.8189 5.92529C14.9497 6.05613 15.0232 6.23359 15.0232 6.41862C15.0232 6.60366 14.9497 6.78111 14.8189 6.91195C14.6881 7.04279 14.5106 7.11629 14.3256 7.11629ZM14.3256 10.8372H5.95349C5.76845 10.8372 5.591 10.7637 5.46016 10.6329C5.32932 10.502 5.25581 10.3246 5.25581 10.1395C5.25581 9.95451 5.32932 9.77706 5.46016 9.64622C5.591 9.51538 5.76845 9.44187 5.95349 9.44187H14.3256C14.5106 9.44187 14.6881 9.51538 14.8189 9.64622C14.9497 9.77706 15.0232 9.95451 15.0232 10.1395C15.0232 10.3246 14.9497 10.502 14.8189 10.6329C14.6881 10.7637 14.5106 10.8372 14.3256 10.8372ZM12 14.5581H5.95349C5.76845 14.5581 5.591 14.4846 5.46016 14.3538C5.32932 14.223 5.25581 14.0455 5.25581 13.8605C5.25581 13.6754 5.32932 13.498 5.46016 13.3671C5.591 13.2363 5.76845 13.1628 5.95349 13.1628H12C12.185 13.1628 12.3625 13.2363 12.4933 13.3671C12.6242 13.498 12.6977 13.6754 12.6977 13.8605C12.6977 14.0455 12.6242 14.223 12.4933 14.3538C12.3625 14.4846 12.185 14.5581 12 14.5581ZM11.0698 18.2791H5.95349C5.76845 18.2791 5.591 18.2056 5.46016 18.0747C5.32932 17.9439 5.25581 17.7664 5.25581 17.5814C5.25581 17.3964 5.32932 17.2189 5.46016 17.0881C5.591 16.9572 5.76845 16.8837 5.95349 16.8837H11.0698C11.2548 16.8837 11.4322 16.9572 11.5631 17.0881C11.6939 17.2189 11.7674 17.3964 11.7674 17.5814C11.7674 17.7664 11.6939 17.9439 11.5631 18.0747C11.4322 18.2056 11.2548 18.2791 11.0698 18.2791ZM17.5814 22C16.7075 22 15.8532 21.7408 15.1265 21.2553C14.3999 20.7698 13.8336 20.0797 13.4991 19.2723C13.1647 18.4649 13.0772 17.5765 13.2477 16.7194C13.4182 15.8622 13.839 15.0749 14.457 14.457C15.0749 13.839 15.8622 13.4182 16.7194 13.2477C17.5765 13.0772 18.4649 13.1647 19.2723 13.4991C20.0797 13.8336 20.7698 14.3999 21.2553 15.1266C21.7408 15.8532 22 16.7075 22 17.5814C21.9987 18.7529 21.5328 19.8761 20.7044 20.7045C19.8761 21.5328 18.7529 21.9988 17.5814 22ZM17.5814 14.5581C16.9834 14.5581 16.3989 14.7355 15.9017 15.0677C15.4046 15.3999 15.0171 15.872 14.7883 16.4244C14.5594 16.9769 14.4996 17.5847 14.6162 18.1712C14.7329 18.7577 15.0208 19.2963 15.4436 19.7192C15.8664 20.142 16.4051 20.4299 16.9916 20.5466C17.578 20.6632 18.1859 20.6033 18.7383 20.3745C19.2908 20.1457 19.7629 19.7582 20.0951 19.261C20.4273 18.7639 20.6046 18.1793 20.6046 17.5814C20.6036 16.7799 20.2848 16.0115 19.7181 15.4447C19.1513 14.878 18.3829 14.5591 17.5814 14.5581Z" fill="#141414"/>
<path d="M17.116 19.2094C17.0244 19.2094 16.9337 19.1913 16.8491 19.1562C16.7645 19.1211 16.6876 19.0696 16.623 19.0047L15.6928 18.0745C15.6242 18.0106 15.5692 17.9336 15.5311 17.848C15.493 17.7624 15.4725 17.67 15.4708 17.5764C15.4692 17.4827 15.4864 17.3896 15.5215 17.3028C15.5566 17.2159 15.6088 17.137 15.675 17.0707C15.7413 17.0045 15.8202 16.9522 15.9071 16.9171C15.994 16.8821 16.087 16.8648 16.1807 16.8665C16.2744 16.8681 16.3667 16.8886 16.4523 16.9268C16.5379 16.9649 16.6149 17.0199 16.6788 17.0884L17.116 17.5256L18.4835 16.1582C18.6157 16.035 18.7906 15.9679 18.9714 15.9711C19.1521 15.9742 19.3246 16.0475 19.4524 16.1753C19.5802 16.3031 19.6534 16.4756 19.6566 16.6563C19.6598 16.8371 19.5927 17.012 19.4695 17.1442L17.609 19.0047C17.5444 19.0696 17.4675 19.1211 17.3829 19.1562C17.2983 19.1913 17.2076 19.2094 17.116 19.2094Z" fill="#141414"/>
</svg>
