<svg width="24" height="24" viewBox="0 0 24 24" fill="none" xmlns="http://www.w3.org/2000/svg">
<path d="M19.9898 18.6808L19.0324 6.61567C18.9727 5.83837 18.3153 5.22945 17.5357 5.22945H15.6445V5.14444C15.6445 2.85917 13.7853 1 11.5001 1C9.21479 1 7.35561 2.85917 7.35561 5.14444V5.22945H5.46441C4.6848 5.22945 4.02739 5.83832 3.96792 6.61404L3.01013 18.6825C2.93601 19.6488 3.27123 20.6108 3.92977 21.3218C4.58832 22.0327 5.52186 22.4406 6.491 22.4406H16.5091C17.4782 22.4406 18.4117 22.0328 19.0703 21.3218C19.7289 20.6108 20.0641 19.6488 19.9898 18.6808ZM8.61148 5.14444C8.61148 3.55168 9.90734 2.25586 11.5001 2.25586C13.0928 2.25586 14.3886 3.55172 14.3886 5.14444V5.22945H8.61148V5.14444ZM18.1489 20.4684C17.721 20.9303 17.1387 21.1847 16.5091 21.1847H6.49104C5.86139 21.1847 5.27906 20.9303 4.85117 20.4684C4.42332 20.0065 4.21419 19.4063 4.26227 18.7802L5.21997 6.71169C5.22969 6.58472 5.33706 6.48531 5.46441 6.48531H7.35561V8.032C7.35561 8.37878 7.63677 8.65994 7.98355 8.65994C8.33032 8.65994 8.61148 8.37878 8.61148 8.032V6.48531H14.3886V8.032C14.3886 8.37878 14.6698 8.65994 15.0166 8.65994C15.3633 8.65994 15.6445 8.37878 15.6445 8.032V6.48531H17.5357C17.663 6.48531 17.7704 6.58477 17.7803 6.71337L18.7378 18.7785C18.786 19.4063 18.5768 20.0064 18.1489 20.4684Z" fill="#141414"/>
<path d="M14.3302 11.6485C14.085 11.4033 13.6874 11.4033 13.4422 11.6485L10.6384 14.4524L9.56023 13.3742C9.31504 13.129 8.91743 13.129 8.6722 13.3742C8.42697 13.6195 8.42697 14.017 8.6722 14.2623L10.1944 15.7844C10.317 15.907 10.4777 15.9684 10.6383 15.9684C10.799 15.9684 10.9597 15.9071 11.0823 15.7844L14.3301 12.5366C14.5754 12.2913 14.5754 11.8937 14.3302 11.6485Z" fill="#141414"/>
</svg>
