<svg width="24" height="24" viewBox="0 0 24 24" fill="none" xmlns="http://www.w3.org/2000/svg">
<path d="M20.7158 19.0123L19.7513 6.85767C19.6915 6.07454 19.0289 5.46134 18.2437 5.46134H16.3383V8.2844C16.3383 8.63401 16.0553 8.91701 15.7057 8.91701C15.3565 8.91701 15.0731 8.63401 15.0731 8.2844V5.46134H9.2533V8.2844C9.2533 8.63401 8.96988 8.91701 8.62069 8.91701C8.27109 8.91701 7.98809 8.63401 7.98809 8.2844V5.46134H6.08274C5.2975 5.46134 4.63495 6.07454 4.57508 6.85598L3.61017 19.014C3.53554 19.9877 3.87333 20.9569 4.53669 21.6729C5.20009 22.389 6.14053 22.8002 7.11684 22.8002H17.2096C18.1859 22.8002 19.1264 22.389 19.7898 21.6729C20.4531 20.9568 20.7909 19.9877 20.7158 19.0123ZM15.0132 12.8226L11.7415 16.0943C11.6828 16.1532 11.613 16.1999 11.5363 16.2317C11.4595 16.2636 11.3772 16.2799 11.294 16.2799C11.2109 16.2799 11.1286 16.2636 11.0518 16.2317C10.975 16.1999 10.9053 16.1532 10.8466 16.0943L9.3132 14.5609C9.06607 14.3138 9.06607 13.9136 9.3132 13.6664C9.56034 13.4193 9.96099 13.4193 10.2077 13.6664L11.2941 14.7524L14.1188 11.9277C14.3655 11.681 14.7661 11.681 15.0133 11.9277C15.2604 12.1748 15.2604 12.5754 15.0132 12.8226ZM12.1632 1.2002C9.86101 1.2002 7.98814 3.07349 7.98814 5.3757V5.4613H9.25334V5.3757C9.25334 3.77102 10.5586 2.46536 12.1633 2.46536C13.7679 2.46536 15.0732 3.77102 15.0732 5.3757V5.4613H16.3383V5.3757C16.3383 3.07349 14.4654 1.2002 12.1632 1.2002Z" fill="#141414"/>
</svg>
