<svg width="24" height="24" viewBox="0 0 24 24" fill="none" xmlns="http://www.w3.org/2000/svg">
<path d="M7.25 7C7.25 4.381 9.381 2.25 12 2.25C14.619 2.25 16.75 4.381 16.75 7C16.75 9.619 14.619 11.75 12 11.75C9.381 11.75 7.25 9.619 7.25 7ZM15 13.25H9C5.83 13.25 3.25 15.83 3.25 19C3.25053 19.7292 3.54043 20.4283 4.05604 20.944C4.57165 21.4596 5.27082 21.7495 6 21.75H18C18.7292 21.7495 19.4283 21.4596 19.944 20.944C20.4596 20.4283 20.7495 19.7292 20.75 19C20.75 15.83 18.17 13.25 15 13.25Z" fill="#141414"/>
</svg>
