<svg width="24" height="24" viewBox="0 0 24 24" fill="none" xmlns="http://www.w3.org/2000/svg">
<path d="M12 11.75C14.62 11.75 16.75 9.62 16.75 7C16.75 4.38 14.62 2.25 12 2.25C9.38 2.25 7.25 4.38 7.25 7C7.25 9.62 9.38 11.75 12 11.75ZM12 3.75C13.79 3.75 15.25 5.21 15.25 7C15.25 8.79 13.79 10.25 12 10.25C10.21 10.25 8.75 8.79 8.75 7C8.75 5.21 10.21 3.75 12 3.75ZM15 13.25H9C5.83 13.25 3.25 15.83 3.25 19C3.25 20.52 4.48 21.75 6 21.75H18C19.52 21.75 20.75 20.52 20.75 19C20.75 15.83 18.17 13.25 15 13.25ZM18 20.25H6C5.31 20.25 4.75 19.69 4.75 19C4.75264 17.8736 5.20126 16.7942 5.99771 15.9977C6.79417 15.2013 7.87364 14.7526 9 14.75H15C16.1264 14.7526 17.2058 15.2013 18.0023 15.9977C18.7987 16.7942 19.2474 17.8736 19.25 19C19.25 19.69 18.69 20.25 18 20.25Z" fill="#141414"/>
</svg>
