<svg width="13" height="16" viewBox="0 0 13 16" fill="none" xmlns="http://www.w3.org/2000/svg">
<path d="M11.75 2H9V1.5C9 0.671562 8.32844 0 7.5 0H5.5C4.67156 0 4 0.671562 4 1.5V2H1.25C0.559656 2 0 2.55966 0 3.25V4.25C0 4.52616 0.223844 4.75 0.5 4.75H12.5C12.7762 4.75 13 4.52616 13 4.25V3.25C13 2.55966 12.4403 2 11.75 2ZM5 1.5C5 1.22438 5.22437 1 5.5 1H7.5C7.77563 1 8 1.22438 8 1.5V2H5V1.5ZM0.948875 5.75C0.927731 5.75 0.906806 5.75429 0.88737 5.76262C0.867933 5.77094 0.850388 5.78313 0.835797 5.79843C0.821207 5.81373 0.809874 5.83184 0.802485 5.85165C0.795097 5.87146 0.791806 5.89257 0.792813 5.91369L1.20531 14.5712C1.24344 15.3725 1.90156 16 2.70344 16H10.2966C11.0984 16 11.7566 15.3725 11.7947 14.5712L12.2072 5.91369C12.2082 5.89257 12.2049 5.87146 12.1975 5.85165C12.1901 5.83184 12.1788 5.81373 12.1642 5.79843C12.1496 5.78313 12.1321 5.77094 12.1126 5.76262C12.0932 5.75429 12.0723 5.75 12.0511 5.75H0.948875ZM8.5 7C8.5 6.72375 8.72375 6.5 9 6.5C9.27625 6.5 9.5 6.72375 9.5 7V13.5C9.5 13.7762 9.27625 14 9 14C8.72375 14 8.5 13.7762 8.5 13.5V7ZM6 7C6 6.72375 6.22375 6.5 6.5 6.5C6.77625 6.5 7 6.72375 7 7V13.5C7 13.7762 6.77625 14 6.5 14C6.22375 14 6 13.7762 6 13.5V7ZM3.5 7C3.5 6.72375 3.72375 6.5 4 6.5C4.27625 6.5 4.5 6.72375 4.5 7V13.5C4.5 13.7762 4.27625 14 4 14C3.72375 14 3.5 13.7762 3.5 13.5V7Z" fill="#F93A3A"/>
</svg>
