<svg width="18" height="17" viewBox="0 0 18 17" fill="none" xmlns="http://www.w3.org/2000/svg">
<path d="M10.845 1.4452L11.505 0.785195C12.285 0.00519532 13.6425 0.00519532 14.4225 0.785195L14.955 1.3177C15.1471 1.50818 15.2996 1.73483 15.4037 1.98456C15.5077 2.23429 15.5613 2.50215 15.5613 2.7727C15.5613 3.04324 15.5077 3.3111 15.4037 3.56083C15.2996 3.81056 15.1471 4.03721 14.955 4.2277L14.295 4.8877L10.845 1.4377V1.4452ZM10.05 2.2402L3.2175 9.07269C3 9.2902 2.865 9.5752 2.8425 9.8827L2.64 12.0802C2.6175 12.3577 2.715 12.6277 2.91 12.8302C3.09 13.0102 3.3225 13.1077 3.57 13.1077H3.6525L5.85 12.9052C6.1575 12.8752 6.4425 12.7402 6.66 12.5227L13.4925 5.6902L10.0425 2.2402H10.05ZM17.0625 15.5002C17.0625 15.1927 16.8075 14.9377 16.5 14.9377H1.5C1.1925 14.9377 0.9375 15.1927 0.9375 15.5002C0.9375 15.8077 1.1925 16.0627 1.5 16.0627H16.5C16.8075 16.0627 17.0625 15.8077 17.0625 15.5002Z" fill="#388E3C"/>
</svg>
